<svg xmlns="http://www.w3.org/2000/svg" xmlns:xlink="http://www.w3.org/1999/xlink" preserveAspectRatio="xMidYMid" width="57.031" height="34.906" viewBox="0 0 57.031 34.906">
  <path d="M36.733,33.608 L31.137,32.655 L34.183,30.934 L31.488,30.874 L33.771,29.319 L33.103,29.392 L30.724,28.212 L31.620,26.342 L31.203,25.195 L53.667,17.012 L57.015,26.220 L36.733,33.608 ZM52.787,18.901 L33.089,26.076 L33.214,26.420 L32.679,27.537 L33.372,27.881 L39.477,27.213 L36.116,29.503 L39.572,29.579 L35.469,31.899 L36.595,32.090 L55.128,25.340 L52.787,18.901 ZM52.859,24.768 L47.274,26.803 C46.968,26.914 46.625,26.754 46.513,26.448 C46.402,26.141 46.561,25.798 46.868,25.686 L52.453,23.652 C52.760,23.540 53.103,23.700 53.214,24.007 C53.326,24.314 53.166,24.656 52.859,24.768 ZM48.476,23.095 L43.947,24.745 C43.665,24.847 43.351,24.701 43.249,24.419 L43.215,24.327 C43.113,24.045 43.259,23.731 43.541,23.629 L48.070,21.979 C48.351,21.876 48.665,22.023 48.768,22.304 L48.801,22.397 C48.904,22.678 48.757,22.993 48.476,23.095 ZM45.243,26.888 L45.258,26.929 C45.366,27.225 45.212,27.555 44.917,27.662 L43.502,28.178 C43.207,28.285 42.877,28.131 42.770,27.836 L42.754,27.794 C42.647,27.499 42.801,27.169 43.096,27.061 L44.511,26.546 C44.806,26.438 45.136,26.592 45.243,26.888 ZM40.532,14.745 C40.413,15.072 40.104,15.276 39.775,15.276 C39.684,15.276 39.591,15.259 39.500,15.226 C39.081,15.074 38.866,14.612 39.019,14.193 L41.476,7.442 C41.629,7.025 42.089,6.808 42.509,6.962 C42.927,7.114 43.142,7.576 42.990,7.995 L40.532,14.745 ZM38.720,8.128 C38.599,8.453 38.292,8.653 37.965,8.653 C37.871,8.653 37.776,8.637 37.684,8.602 C37.267,8.447 37.055,7.982 37.210,7.566 L39.830,0.518 C39.985,0.100 40.450,-0.112 40.866,0.044 C41.282,0.199 41.494,0.663 41.339,1.080 L38.720,8.128 ZM36.862,15.318 C36.532,16.225 35.635,16.775 34.698,16.682 C34.710,16.953 34.668,17.225 34.574,17.483 C34.384,18.006 34.001,18.424 33.495,18.659 C32.990,18.896 32.425,18.921 31.901,18.729 C31.863,18.716 31.822,18.698 31.775,18.678 L31.058,18.417 C31.062,18.668 31.019,18.921 30.932,19.162 C30.741,19.684 30.359,20.102 29.853,20.339 C29.572,20.470 29.273,20.536 28.972,20.536 C28.732,20.536 28.492,20.494 28.260,20.409 C28.219,20.394 28.174,20.376 28.122,20.349 L17.011,16.303 C15.008,15.574 13.378,14.029 12.539,12.063 L12.513,12.013 C12.457,11.880 12.406,11.743 12.356,11.604 L6.356,9.426 C6.078,9.325 5.951,8.974 6.067,8.627 L6.085,8.578 C6.219,8.238 6.541,8.049 6.820,8.151 L11.977,10.029 C11.932,9.689 11.909,9.354 11.908,9.027 C11.907,8.950 11.921,8.870 11.950,8.791 C12.049,8.519 12.302,8.341 12.593,8.339 C12.973,8.339 13.281,8.648 13.281,9.026 C13.283,9.876 13.452,10.703 13.783,11.483 C13.801,11.523 13.815,11.570 13.825,11.625 C14.538,13.228 15.834,14.439 17.474,15.037 L28.720,19.138 C28.907,19.205 29.105,19.197 29.283,19.112 C29.462,19.029 29.598,18.882 29.664,18.696 C29.732,18.511 29.723,18.311 29.640,18.132 C29.556,17.954 29.409,17.818 29.225,17.751 L29.229,17.542 L29.229,17.542 L29.162,17.732 L23.155,15.545 C22.811,15.421 22.632,15.051 22.745,14.703 L22.764,14.651 C22.900,14.313 23.277,14.144 23.619,14.270 L32.299,17.432 L32.296,17.649 L32.296,17.649 L32.365,17.460 C32.748,17.599 33.171,17.400 33.310,17.019 C33.440,16.661 33.272,16.257 32.929,16.099 L24.860,13.159 C24.692,13.099 24.557,12.976 24.481,12.813 C24.404,12.649 24.396,12.466 24.458,12.296 C24.585,11.947 24.972,11.764 25.320,11.894 L33.226,14.773 C33.247,14.779 33.289,14.793 33.328,14.807 C33.371,14.822 33.415,14.838 33.458,14.859 L34.624,15.289 C35.033,15.439 35.458,15.239 35.597,14.857 C35.736,14.475 35.538,14.051 35.156,13.911 L35.104,13.897 L25.823,10.518 C25.479,10.392 25.298,10.008 25.418,9.661 L25.439,9.609 C25.558,9.292 25.943,9.114 26.287,9.241 L34.189,12.115 C34.245,12.141 34.268,12.151 34.294,12.160 C34.477,12.228 34.678,12.219 34.856,12.135 C35.035,12.052 35.170,11.904 35.237,11.719 C35.304,11.534 35.296,11.334 35.212,11.155 C35.129,10.977 34.981,10.841 34.797,10.774 L24.480,7.017 C23.330,9.208 20.752,10.214 18.410,9.358 C18.061,9.231 17.881,8.844 18.007,8.495 C18.069,8.326 18.193,8.191 18.355,8.115 C18.520,8.039 18.701,8.030 18.870,8.093 C19.772,8.420 20.751,8.378 21.624,7.971 C22.497,7.564 23.158,6.842 23.487,5.940 C23.548,5.770 23.672,5.635 23.835,5.560 C23.998,5.482 24.181,5.473 24.350,5.537 L27.796,6.792 C28.577,7.072 29.441,6.673 29.724,5.892 L28.275,5.393 L21.836,3.047 C20.147,2.434 18.266,2.562 16.668,3.404 C16.633,3.434 16.595,3.460 16.555,3.484 C16.014,3.783 15.521,4.158 15.091,4.596 L15.012,4.729 L14.974,4.718 C14.900,4.796 14.829,4.877 14.760,4.959 C14.515,5.248 14.081,5.288 13.792,5.045 C13.573,4.858 13.491,4.553 13.589,4.284 C13.616,4.210 13.656,4.142 13.708,4.079 C13.924,3.821 14.158,3.578 14.406,3.350 L9.249,1.477 C8.972,1.377 8.845,1.026 8.959,0.679 L8.978,0.627 C9.113,0.288 9.441,0.101 9.713,0.204 L15.705,2.386 C15.767,2.349 15.829,2.312 15.893,2.278 C15.935,2.256 15.975,2.238 16.019,2.224 C17.926,1.195 20.228,1.028 22.295,1.781 L30.201,4.661 C30.531,4.781 30.795,5.023 30.944,5.343 C31.092,5.662 31.109,6.021 30.988,6.351 C30.806,6.851 30.486,7.289 30.068,7.618 L35.254,9.507 C35.776,9.697 36.194,10.081 36.430,10.586 C36.665,11.092 36.690,11.658 36.500,12.181 C36.406,12.441 36.261,12.678 36.076,12.880 C36.855,13.409 37.192,14.410 36.862,15.318 ZM34.796,6.981 C34.679,7.311 34.369,7.518 34.037,7.518 C33.948,7.518 33.857,7.503 33.768,7.472 C33.349,7.322 33.129,6.862 33.278,6.442 L34.687,2.463 C34.837,2.044 35.299,1.828 35.715,1.972 C36.135,2.121 36.354,2.582 36.205,3.002 L34.796,6.981 ZM25.117,27.003 L23.568,27.038 L24.977,28.897 L23.503,29.406 L24.125,29.733 L23.397,31.731 L21.565,31.532 L24.119,34.903 L-0.000,26.116 L3.348,16.909 L25.812,25.093 L25.117,27.003 ZM4.228,18.798 L3.791,19.999 L7.965,21.519 C8.246,21.621 8.393,21.936 8.290,22.217 L8.257,22.310 C8.154,22.591 7.840,22.738 7.559,22.635 L3.386,21.115 L1.887,25.236 L19.927,31.808 L18.327,29.695 L21.556,30.048 L19.801,29.127 L22.577,28.168 L20.653,25.632 L22.848,25.581 L4.228,18.798 ZM12.470,27.694 L6.885,25.659 C6.578,25.548 6.419,25.205 6.530,24.898 C6.642,24.591 6.984,24.431 7.291,24.543 L12.876,26.577 C13.183,26.689 13.343,27.032 13.231,27.339 C13.119,27.646 12.777,27.806 12.470,27.694 ZM12.844,23.952 C12.737,24.248 12.407,24.401 12.112,24.294 L10.697,23.778 C10.402,23.671 10.248,23.341 10.355,23.045 L10.371,23.004 C10.478,22.708 10.808,22.554 11.103,22.662 L12.518,23.177 C12.813,23.285 12.967,23.615 12.860,23.910 L12.844,23.952 Z" class="cls-1"/>
</svg>
