<svg xmlns="http://www.w3.org/2000/svg" xmlns:xlink="http://www.w3.org/1999/xlink" preserveAspectRatio="xMidYMid" width="33.031" height="30" viewBox="0 0 33.031 30">
  <path d="M32.581,20.643 C32.513,20.772 32.423,20.884 32.341,21.001 L32.660,23.599 C32.786,24.544 32.494,25.527 31.913,26.267 C31.291,27.047 30.421,27.498 29.466,27.622 L10.973,29.714 C10.888,29.712 10.847,29.712 10.806,29.712 C10.755,29.712 10.708,29.694 10.659,29.686 C10.187,29.892 9.684,29.998 9.188,29.998 C8.234,29.998 7.322,29.628 6.618,28.932 L1.020,23.392 C-0.390,21.996 -0.390,19.699 1.020,18.263 L18.396,1.068 C19.099,0.372 20.013,0.002 20.965,0.002 C21.961,0.002 22.872,0.372 23.535,1.068 L29.133,6.608 C29.840,7.307 30.192,8.232 30.191,9.162 L31.706,11.370 C32.246,12.150 32.453,13.135 32.287,14.078 C32.206,14.536 32.035,14.963 31.788,15.349 L32.788,17.854 C32.788,17.854 32.788,17.895 32.829,17.895 C33.118,18.839 33.036,19.782 32.581,20.643 ZM29.218,25.773 C29.674,25.732 30.129,25.487 30.421,25.117 C30.710,24.747 30.836,24.296 30.794,23.805 L30.613,22.330 C30.549,22.354 30.490,22.388 30.425,22.409 L14.493,27.290 L14.224,27.469 L29.218,25.773 ZM27.808,7.963 L22.209,2.423 C21.877,2.054 21.421,1.889 20.965,1.889 C20.469,1.889 20.054,2.094 19.681,2.423 L2.305,19.617 C1.601,20.314 1.601,21.423 2.305,22.121 L7.903,27.660 C8.607,28.357 9.728,28.357 10.432,27.660 L27.808,10.466 C28.511,9.769 28.511,8.660 27.808,7.963 ZM30.172,12.396 L29.450,11.343 C29.350,11.478 29.254,11.614 29.133,11.737 L18.199,22.558 L29.714,14.858 C30.088,14.612 30.377,14.202 30.462,13.708 C30.544,13.216 30.462,12.763 30.172,12.396 ZM31.002,18.470 L30.316,16.709 L19.894,23.678 L29.799,20.643 C30.102,20.561 30.364,20.384 30.582,20.157 C30.622,20.093 30.673,20.041 30.727,19.989 C30.779,19.922 30.832,19.855 30.877,19.782 C31.084,19.372 31.125,18.921 31.002,18.470 ZM23.992,12.518 C23.786,12.682 23.535,12.804 23.328,12.804 C23.080,12.804 22.832,12.723 22.665,12.518 L17.607,7.512 C17.233,7.143 17.233,6.567 17.607,6.200 L20.177,3.656 C20.510,3.327 21.132,3.327 21.503,3.656 L26.561,8.662 C26.935,9.032 26.935,9.606 26.561,9.974 L23.992,12.518 ZM20.840,5.582 L19.555,6.854 L23.287,10.547 L24.572,9.275 L20.840,5.582 ZM21.836,14.612 L19.266,17.155 C19.099,17.358 18.851,17.442 18.603,17.442 C18.354,17.442 18.106,17.360 17.939,17.155 L12.882,12.150 C12.508,11.780 12.508,11.205 12.882,10.837 L15.451,8.294 C15.784,7.965 16.406,7.965 16.778,8.294 L21.836,13.300 C22.209,13.669 22.209,14.244 21.836,14.612 ZM16.156,10.220 L14.871,11.492 L18.603,15.185 L19.888,13.913 L16.156,10.220 ZM17.439,18.592 C17.439,18.838 17.357,19.083 17.149,19.248 L14.579,21.791 C14.372,21.996 14.164,22.077 13.916,22.077 C13.668,22.077 13.420,21.996 13.253,21.791 L8.195,16.786 C7.821,16.416 7.821,15.841 8.195,15.473 L10.765,12.930 C11.097,12.601 11.719,12.601 12.091,12.930 L17.149,17.935 C17.315,18.100 17.439,18.346 17.439,18.592 ZM11.469,14.898 L10.184,16.170 L13.916,19.864 L15.201,18.592 L11.469,14.898 ZM9.813,20.438 C10.268,20.889 10.517,21.505 10.517,22.161 C10.517,22.817 10.268,23.433 9.813,23.883 C9.355,24.334 8.733,24.583 8.070,24.583 C7.407,24.583 6.785,24.337 6.329,23.886 C5.374,22.941 5.374,21.383 6.329,20.438 C7.284,19.494 8.858,19.494 9.813,20.438 ZM7.655,21.751 C7.530,21.874 7.489,21.996 7.489,22.161 C7.489,22.326 7.530,22.447 7.655,22.571 C7.903,22.817 8.277,22.817 8.484,22.571 C8.609,22.447 8.651,22.326 8.651,22.161 C8.651,21.996 8.609,21.874 8.484,21.751 C8.359,21.627 8.236,21.586 8.070,21.586 C7.903,21.586 7.780,21.627 7.655,21.751 Z" class="cls-1"/>
</svg>
