<svg xmlns="http://www.w3.org/2000/svg" xmlns:xlink="http://www.w3.org/1999/xlink" preserveAspectRatio="xMidYMid" width="17" height="21" viewBox="0 0 17 21">
  <path d="M16.788,3.042 C16.665,3.169 16.508,3.239 16.347,3.239 L15.175,3.239 L15.177,18.526 C15.177,19.889 14.120,20.998 12.822,20.998 L4.179,20.998 C3.554,20.998 2.963,20.741 2.516,20.274 C2.067,19.805 1.820,19.185 1.821,18.528 L1.817,3.239 L0.647,3.239 C0.486,3.239 0.329,3.169 0.207,3.043 C0.072,2.904 -0.005,2.715 -0.005,2.524 C-0.004,2.330 0.075,2.138 0.213,1.998 C0.333,1.877 0.483,1.810 0.639,1.810 C0.641,1.810 0.643,1.810 0.645,1.810 L7.847,1.812 L7.844,0.674 C7.844,0.304 8.135,0.003 8.492,0.003 C8.855,0.005 9.143,0.301 9.147,0.673 L9.143,1.812 L16.349,1.815 C16.504,1.812 16.666,1.883 16.789,2.010 C16.924,2.149 16.999,2.338 16.997,2.531 C16.998,2.717 16.922,2.904 16.788,3.042 ZM3.057,3.141 L3.055,18.475 C3.061,19.134 3.556,19.652 4.183,19.657 L12.823,19.649 C13.125,19.649 13.408,19.529 13.620,19.309 C13.835,19.087 13.953,18.789 13.952,18.472 L13.956,3.139 L3.057,3.141 ZM10.500,16.571 C10.323,16.569 10.159,16.497 10.036,16.368 C9.917,16.243 9.853,16.077 9.856,15.900 L9.858,6.674 C9.857,6.496 9.924,6.330 10.045,6.204 C10.166,6.078 10.329,6.009 10.503,6.009 C10.677,6.009 10.840,6.079 10.963,6.206 C11.084,6.331 11.151,6.496 11.151,6.671 L11.152,15.899 C11.153,16.076 11.086,16.244 10.962,16.371 C10.838,16.498 10.674,16.569 10.500,16.571 ZM6.496,16.566 C6.495,16.566 6.495,16.566 6.494,16.566 L6.493,16.566 C6.491,16.566 6.490,16.566 6.489,16.566 C6.319,16.566 6.158,16.498 6.036,16.373 C5.913,16.246 5.845,16.079 5.845,15.900 L5.843,6.674 C5.844,6.497 5.916,6.324 6.041,6.198 C6.161,6.077 6.318,6.010 6.485,6.010 C6.488,6.010 6.492,6.010 6.496,6.010 C6.669,6.010 6.831,6.079 6.953,6.205 C7.073,6.330 7.138,6.494 7.136,6.669 L7.146,15.897 C7.144,16.266 6.852,16.566 6.496,16.566 Z" class="cls-1"/>
</svg>
