<svg xmlns="http://www.w3.org/2000/svg" xmlns:xlink="http://www.w3.org/1999/xlink" preserveAspectRatio="xMidYMid" width="22.5" height="23.75" viewBox="0 0 22.5 23.75">
  <path d="M21.448,23.764 L1.042,23.764 C0.466,23.764 -0.002,23.287 -0.002,22.699 L-0.002,16.608 C-0.002,16.020 0.466,15.543 1.042,15.543 C1.619,15.543 2.087,16.020 2.087,16.608 L2.087,21.634 L20.403,21.634 L20.403,16.608 C20.403,16.020 20.871,15.543 21.448,15.543 C22.025,15.543 22.493,16.020 22.493,16.608 L22.493,22.699 C22.493,23.287 22.025,23.764 21.448,23.764 ZM11.982,15.597 C11.865,15.716 11.718,15.810 11.554,15.861 C11.520,15.872 11.486,15.880 11.452,15.887 C11.386,15.901 11.316,15.909 11.242,15.909 C11.067,15.909 10.902,15.866 10.759,15.787 C10.728,15.770 10.700,15.752 10.671,15.733 C10.642,15.715 10.614,15.693 10.585,15.670 C10.556,15.647 10.531,15.624 10.506,15.598 L6.068,11.078 C5.660,10.662 5.660,9.987 6.068,9.571 C6.478,9.156 7.139,9.156 7.547,9.571 L10.199,12.276 L10.199,1.057 C10.199,0.469 10.670,-0.007 11.244,-0.007 C11.820,-0.007 12.289,0.469 12.289,1.057 L12.289,12.274 L14.943,9.570 C15.351,9.155 16.011,9.155 16.422,9.570 C16.829,9.985 16.829,10.662 16.420,11.076 L11.982,15.597 Z" class="cls-1"/>
</svg>
