<svg xmlns="http://www.w3.org/2000/svg" xmlns:xlink="http://www.w3.org/1999/xlink" preserveAspectRatio="xMidYMid" width="22" height="28" viewBox="0 0 22 28">
  <path d="M-0.003,27.988 L-0.003,24.878 L21.994,24.878 L21.994,27.988 L-0.003,27.988 ZM19.842,5.065 C19.607,5.341 19.179,5.341 18.943,5.065 L16.933,2.711 C16.608,2.331 16.880,1.747 17.382,1.747 L21.403,1.747 C21.905,1.747 22.177,2.331 21.853,2.711 L19.842,5.065 ZM17.257,22.546 L15.631,17.862 L6.266,17.862 L4.734,22.546 L1.603,22.546 L8.980,-0.001 L9.430,-0.001 L12.111,-0.001 L12.560,-0.001 L20.387,22.546 L17.257,22.546 ZM10.810,3.975 L7.277,14.772 L14.558,14.772 L10.810,3.975 Z" class="cls-1"/>
</svg>
