<svg xmlns="http://www.w3.org/2000/svg" xmlns:xlink="http://www.w3.org/1999/xlink" preserveAspectRatio="xMidYMid" width="35" height="30" viewBox="0 0 35 30">
  <path d="M31.412,30.002 L3.646,30.002 C1.635,30.002 -0.000,28.437 -0.000,26.513 L-0.000,3.488 C-0.000,1.564 1.635,-0.001 3.646,-0.001 L31.354,-0.001 C33.365,-0.001 35.000,1.564 35.000,3.488 L35.000,26.513 C35.000,28.437 33.391,30.002 31.412,30.002 ZM33.565,4.039 C33.565,2.908 32.599,1.989 31.412,1.989 L4.142,1.989 C2.955,1.989 1.990,2.908 1.990,4.039 L1.990,26.585 C1.990,27.716 2.955,28.635 4.142,28.635 L31.412,28.635 C32.599,28.635 33.565,27.716 33.565,26.585 L33.565,4.039 ZM30.548,19.810 L4.452,19.810 C4.028,19.810 3.684,19.479 3.684,19.071 C3.684,18.661 4.028,18.330 4.452,18.330 L30.548,18.330 C30.972,18.330 31.316,18.661 31.316,19.071 C31.316,19.479 30.972,19.810 30.548,19.810 ZM17.559,13.254 C17.425,13.447 17.206,13.565 16.967,13.578 C16.953,13.582 16.938,13.582 16.924,13.582 C16.700,13.582 16.487,13.487 16.341,13.322 L14.071,10.764 C13.795,10.453 13.833,9.987 14.155,9.721 C14.478,9.454 14.961,9.491 15.238,9.802 L16.854,11.622 L21.086,5.582 C21.324,5.243 21.800,5.155 22.151,5.382 C22.503,5.612 22.595,6.071 22.357,6.409 L17.559,13.254 ZM9.057,22.031 L25.943,22.031 C26.367,22.031 26.710,22.362 26.710,22.770 C26.710,23.180 26.367,23.511 25.943,23.511 L9.057,23.511 C8.633,23.511 8.290,23.180 8.290,22.770 C8.290,22.362 8.633,22.031 9.057,22.031 Z" class="cls-1"/>
</svg>
