<svg xmlns="http://www.w3.org/2000/svg" xmlns:xlink="http://www.w3.org/1999/xlink" preserveAspectRatio="xMidYMid" width="37" height="29" viewBox="0 0 37 29">
  <path d="M2.059,2.075 L34.941,2.075 L34.941,9.075 L2.059,9.075 L2.059,2.075 ZM25.076,20.049 L34.941,20.049 L34.941,26.924 L25.076,26.924 L25.076,20.049 ZM13.568,20.049 L23.021,20.049 L23.021,26.924 L13.568,26.924 L13.568,20.049 ZM34.941,17.979 L25.076,17.979 L25.076,11.145 L34.941,11.145 L34.941,17.979 ZM23.021,17.979 L13.568,17.979 L13.568,11.145 L23.021,11.145 L23.021,17.979 ZM11.512,26.924 L2.059,26.924 L2.059,20.049 L11.512,20.049 L11.512,26.924 ZM2.059,11.145 L11.512,11.145 L11.512,18.019 L2.059,18.019 L2.059,11.145 ZM0.004,28.994 L36.996,28.994 L36.996,0.004 L0.004,0.004 L0.004,28.994 Z" class="cls-1"/>
</svg>
