<svg xmlns="http://www.w3.org/2000/svg" xmlns:xlink="http://www.w3.org/1999/xlink" preserveAspectRatio="xMidYMid" width="32" height="34" viewBox="0 0 32 34">
  <path d="M27.036,27.894 C24.215,30.829 19.810,32.577 15.251,32.577 C15.242,32.577 15.234,32.577 15.226,32.577 C10.888,32.571 6.915,31.240 4.549,29.012 C4.572,28.891 4.639,28.654 4.839,28.251 C4.880,28.172 4.940,28.053 4.982,27.980 C5.063,27.980 5.194,27.995 5.351,28.015 C5.370,28.101 5.368,28.234 5.265,28.405 C5.065,28.741 5.174,29.175 5.510,29.377 C5.625,29.446 5.750,29.477 5.873,29.477 C6.115,29.477 6.349,29.354 6.483,29.133 C6.679,28.806 6.760,28.486 6.775,28.199 C7.687,28.244 9.464,28.214 11.577,27.882 C11.671,27.884 11.760,27.869 11.844,27.838 C15.203,27.279 19.324,25.952 22.142,22.988 C25.184,19.786 26.138,15.354 24.977,9.814 C24.898,9.430 24.522,9.186 24.138,9.265 C23.754,9.344 23.510,9.720 23.589,10.103 C24.647,15.161 23.814,19.166 21.113,22.012 C18.529,24.732 14.637,25.946 11.499,26.459 C10.921,26.419 10.257,26.280 10.257,26.280 C6.602,25.583 4.449,24.181 2.391,21.136 C2.437,21.023 2.552,20.802 2.831,20.450 C2.890,20.377 2.927,20.339 2.948,20.318 C3.007,20.326 3.105,20.358 3.222,20.400 C3.234,20.479 3.226,20.573 3.165,20.664 C2.948,20.990 3.036,21.430 3.362,21.647 C3.483,21.726 3.618,21.766 3.754,21.766 C3.984,21.766 4.209,21.655 4.345,21.451 C4.460,21.277 4.535,21.102 4.583,20.931 C4.737,20.982 5.151,21.111 5.760,21.254 C5.781,21.267 5.800,21.280 5.821,21.290 L5.831,21.272 C8.276,21.839 13.639,22.589 17.873,19.674 C21.376,17.260 23.157,12.940 23.165,6.833 C23.165,6.793 23.161,6.755 23.157,6.716 C23.127,6.543 23.098,6.470 23.086,6.436 C22.983,6.190 22.883,5.992 22.785,5.800 C22.547,5.333 22.278,4.805 21.881,3.278 C21.599,2.193 21.643,1.720 21.681,1.551 C22.578,1.319 23.119,1.413 23.420,1.532 C23.265,1.657 22.985,1.763 22.533,1.797 C22.142,1.824 21.848,2.164 21.877,2.554 C21.904,2.928 22.215,3.211 22.582,3.211 C22.599,3.211 22.618,3.211 22.635,3.210 C23.061,3.178 23.411,3.095 23.706,2.978 C23.929,4.605 24.359,6.117 24.384,6.203 C24.418,6.317 24.478,6.419 24.560,6.503 L26.269,8.237 C28.962,10.827 30.409,14.139 30.574,18.084 C30.735,21.926 29.511,25.320 27.036,27.894 ZM1.881,13.626 C1.917,13.603 1.963,13.572 2.005,13.543 C2.072,13.589 2.161,13.653 2.261,13.731 C2.255,13.745 2.245,13.762 2.220,13.789 C1.952,14.075 1.969,14.523 2.255,14.790 C2.391,14.917 2.566,14.980 2.740,14.980 C2.929,14.980 3.120,14.905 3.257,14.755 C3.320,14.688 3.372,14.620 3.418,14.553 C5.240,15.639 9.639,17.585 13.750,16.296 C17.090,15.247 19.516,12.362 20.958,7.721 C21.052,7.446 21.052,7.016 20.783,6.612 C19.802,5.145 19.656,3.203 19.647,2.269 C19.844,2.258 20.054,2.262 20.253,2.273 C20.289,2.667 20.372,3.116 20.506,3.635 C20.939,5.312 21.248,5.913 21.518,6.445 C21.602,6.607 21.674,6.751 21.745,6.916 C21.720,12.486 20.146,16.384 17.067,18.508 C13.537,20.940 8.804,20.504 6.349,19.957 C3.892,18.543 2.291,16.578 1.464,13.962 C1.537,13.890 1.662,13.777 1.881,13.626 ZM31.992,18.026 C31.812,13.706 30.217,10.068 27.267,7.229 L25.700,5.639 C25.534,5.026 24.991,2.886 24.991,1.273 C24.991,1.270 24.991,1.265 24.991,1.263 C24.991,1.252 24.991,1.242 24.991,1.234 L24.989,1.234 C24.981,1.096 24.935,0.961 24.852,0.850 C24.747,0.710 23.752,-0.497 21.196,0.214 C21.034,0.250 20.768,0.352 20.554,0.650 C20.506,0.715 20.466,0.787 20.428,0.863 C19.942,0.829 19.271,0.827 18.754,0.982 C18.474,1.065 18.274,1.311 18.251,1.603 C18.240,1.739 17.996,4.959 19.587,7.369 C18.288,11.499 16.182,14.050 13.328,14.945 C9.092,16.273 4.359,13.568 3.604,12.980 L3.443,12.855 C2.470,12.097 2.069,11.782 1.080,12.458 C0.004,13.193 -0.089,13.778 0.042,14.154 C0.593,16.019 1.480,17.594 2.725,18.912 C2.383,18.958 2.057,19.146 1.723,19.567 C0.773,20.763 0.852,21.419 1.111,21.770 C2.766,24.265 4.523,25.821 6.902,26.789 C6.708,26.780 6.562,26.766 6.470,26.751 L6.219,26.711 C4.698,26.474 4.184,26.393 3.570,27.617 C2.888,28.981 3.100,29.611 3.426,29.899 C6.036,32.456 10.443,33.987 15.224,33.994 C15.234,33.994 15.242,33.994 15.253,33.994 C20.263,33.994 24.931,32.129 28.059,28.875 C30.808,26.017 32.169,22.264 31.992,18.026 Z" class="cls-1"/>
</svg>
