<svg xmlns="http://www.w3.org/2000/svg" xmlns:xlink="http://www.w3.org/1999/xlink" preserveAspectRatio="xMidYMid" width="27" height="18" viewBox="0 0 27 18">
  <path d="M25.810,10.173 L1.194,10.173 C0.539,10.173 -0.001,9.664 -0.001,9.000 C-0.001,8.336 0.539,7.827 1.194,7.827 L25.769,7.827 C26.464,7.827 27.005,8.336 27.005,9.000 C27.005,9.664 26.464,10.173 25.810,10.173 ZM25.810,2.353 L1.194,2.353 C0.539,2.353 -0.001,1.844 -0.001,1.180 C-0.001,0.516 0.539,0.007 1.194,0.007 L25.769,0.007 C26.464,0.007 27.005,0.516 27.005,1.180 C27.005,1.844 26.464,2.353 25.810,2.353 ZM1.194,15.647 L25.769,15.647 C26.464,15.647 27.005,16.156 27.005,16.820 C27.005,17.484 26.464,17.993 25.810,17.993 L1.194,17.993 C0.539,17.993 -0.001,17.484 -0.001,16.820 C-0.001,16.156 0.539,15.647 1.194,15.647 Z" class="cls-1"/>
</svg>
