<svg xmlns="http://www.w3.org/2000/svg" xmlns:xlink="http://www.w3.org/1999/xlink" preserveAspectRatio="xMidYMid" width="34" height="29" viewBox="0 0 34 29">
  <path d="M32.981,29.000 L1.027,29.000 C0.459,29.000 -0.000,28.550 -0.000,27.993 L-0.000,1.014 C-0.000,0.458 0.459,0.007 1.027,0.007 L31.110,0.007 C31.678,0.007 32.137,0.458 32.137,1.014 L32.137,6.221 L32.981,6.221 C33.550,6.221 34.009,6.674 34.009,7.228 L34.009,27.993 C34.009,28.550 33.550,29.000 32.981,29.000 ZM30.083,2.022 L13.710,2.022 L16.595,6.221 L30.083,6.221 L30.083,2.022 ZM31.954,8.235 L16.050,8.235 C15.705,8.235 15.388,8.071 15.197,7.790 L11.236,2.022 L2.054,2.022 L2.054,26.985 L31.954,26.985 L31.954,8.235 ZM19.039,13.185 C19.603,13.452 20.037,13.831 20.341,14.322 C20.644,14.814 20.796,15.373 20.796,16.000 C20.796,16.953 20.464,17.703 19.800,18.252 C19.136,18.801 18.217,19.076 17.042,19.076 L15.254,19.076 L15.254,22.498 L13.213,22.498 L13.213,12.785 L17.076,12.785 C17.820,12.785 18.474,12.918 19.039,13.185 ZM15.254,17.455 L17.076,17.455 C17.615,17.455 18.027,17.330 18.311,17.081 C18.594,16.832 18.735,16.477 18.735,16.014 C18.735,15.538 18.593,15.154 18.307,14.860 C18.021,14.566 17.627,14.415 17.124,14.406 L15.254,14.406 L15.254,17.455 Z" class="cls-1"/>
</svg>
