<?xml version="1.0" encoding="utf-8"?>
<!-- Generator: Adobe Illustrator 19.1.0, SVG Export Plug-In . SVG Version: 6.00 Build 0)  -->
<svg version="1.1" id="Calque_1" xmlns="http://www.w3.org/2000/svg" xmlns:xlink="http://www.w3.org/1999/xlink" x="0px" y="0px"
	 viewBox="-247 370.9 100 100" style="enable-background:new -247 370.9 100 100;" xml:space="preserve">
<path class="st0" d="M-185.2,407.7h-35.5l6.9-6.9c1.1-0.7,1.1-2.2,0.7-3.3c-0.4-1.1-1.8-1.8-2.9-1.5c-0.7,0-1.1,0.4-1.5,0.7
	l-11.7,12.1c-0.4,0.4-0.7,1.5-0.7,2.2c0,0.7,0.4,1.5,0.7,2.2l11.7,12.1c1.1,1.1,2.9,1.1,4.4,0c1.1-1.1,1.1-2.9,0-4l-7.7-7.7h35.5
	c8.4,0,15.4,6.9,15.4,15.4c0,8.4-6.9,15.4-15.4,15.4h-21.9c-0.7,0-1.5,0.4-1.8,0.7c-1.1,0.4-1.1,1.1-1.1,1.8c0,1.5,1.5,2.9,2.9,2.9
	h21.9c11.7,0,21.2-9.5,21.2-21.2C-164,416.9-173.5,407.7-185.2,407.7z"/>
</svg>
