<svg xmlns="http://www.w3.org/2000/svg" xmlns:xlink="http://www.w3.org/1999/xlink" preserveAspectRatio="xMidYMid" width="34" height="29" viewBox="0 0 34 29">
  <path d="M33.990,24.314 C33.990,26.886 31.965,29.008 29.513,29.008 L12.952,29.008 C9.640,29.008 7.003,26.180 7.003,22.771 C7.003,20.968 7.739,19.361 8.903,18.203 C7.679,16.983 7.003,15.309 7.003,13.509 C7.003,9.907 9.824,6.949 13.259,6.949 C15.284,6.949 17.187,7.977 18.351,9.714 C19.392,9.262 20.496,9.005 21.724,9.005 C26.816,9.005 30.925,13.313 30.925,18.653 C30.925,19.102 30.925,19.488 30.864,19.874 C32.644,20.516 33.993,22.252 33.990,24.314 ZM13.259,8.876 C10.807,8.876 8.783,10.998 8.783,13.570 C8.783,14.987 9.395,16.271 10.439,17.172 C11.175,16.786 11.971,16.594 12.831,16.594 C13.383,14.149 14.792,12.026 16.756,10.676 C15.896,9.518 14.671,8.876 13.259,8.876 ZM29.395,21.547 C28.967,21.547 28.475,21.676 28.047,21.933 C28.047,21.996 27.986,21.996 27.986,21.996 C27.742,22.126 27.558,22.319 27.374,22.575 C27.066,22.961 26.454,23.027 26.086,22.704 C25.718,22.382 25.655,21.740 25.962,21.354 C26.330,20.968 26.698,20.582 27.127,20.326 C27.127,20.263 27.187,20.263 27.187,20.263 C27.799,19.940 28.415,19.747 29.027,19.684 C29.088,19.361 29.088,19.042 29.088,18.719 C29.088,14.474 25.775,11.001 21.727,11.001 C17.679,11.001 14.366,14.474 14.366,18.719 C14.366,19.231 14.430,19.684 14.490,20.133 C14.550,20.648 14.246,21.164 13.754,21.227 C13.262,21.291 12.771,20.971 12.710,20.456 C12.647,19.877 12.587,19.298 12.587,18.719 C12.587,18.656 12.587,18.589 12.587,18.526 C10.439,18.719 8.783,20.582 8.783,22.834 C8.783,25.213 10.623,27.142 12.891,27.142 L29.453,27.142 C30.925,27.142 32.095,25.921 32.095,24.378 C32.095,22.834 30.867,21.547 29.395,21.547 ZM20.744,7.076 C20.560,7.269 20.376,7.332 20.131,7.332 C19.947,7.332 19.700,7.203 19.516,7.076 C19.148,6.690 19.148,6.111 19.516,5.725 L21.172,3.926 C21.540,3.540 22.092,3.540 22.460,3.926 C22.828,4.312 22.828,4.890 22.460,5.276 L20.744,7.076 ZM13.323,4.375 C12.771,4.375 12.403,3.923 12.403,3.410 L12.403,0.965 C12.403,0.450 12.831,0.000 13.323,0.000 C13.875,0.000 14.243,0.450 14.243,0.965 L14.243,3.410 C14.243,3.926 13.814,4.375 13.323,4.375 ZM6.391,7.203 C6.207,7.203 5.962,7.139 5.778,6.946 L3.875,5.017 C3.507,4.631 3.507,4.052 3.875,3.666 C4.243,3.280 4.795,3.280 5.163,3.666 L7.003,5.596 C7.371,5.982 7.371,6.560 7.003,6.946 C6.819,7.139 6.635,7.203 6.391,7.203 ZM4.734,13.443 C4.734,13.956 4.306,14.408 3.814,14.408 L0.930,14.408 C0.439,14.408 0.010,13.959 0.010,13.443 C0.010,12.928 0.439,12.478 0.930,12.478 L3.814,12.478 C4.306,12.478 4.734,12.928 4.734,13.443 ZM5.163,20.775 C5.531,20.389 6.083,20.389 6.388,20.775 C6.756,21.161 6.756,21.740 6.388,22.126 L4.671,23.925 C4.487,24.118 4.303,24.182 4.059,24.182 C3.875,24.182 3.630,24.118 3.446,23.925 C3.078,23.539 3.078,22.961 3.446,22.575 L5.163,20.775 Z" class="cls-1"/>
</svg>
