<?xml version="1.0" encoding="iso-8859-1"?>
<!-- Generator: Adobe Illustrator 19.0.0, SVG Export Plug-In . SVG Version: 6.00 Build 0)  -->
<svg version="1.1" id="Layer_1" xmlns="http://www.w3.org/2000/svg" xmlns:xlink="http://www.w3.org/1999/xlink" x="0px" y="0px"
	 viewBox="0 0 455 455" style="enable-background:new 0 0 455 455;" xml:space="preserve">
<g>
	<path d="M81.25,146.25C36.449,146.25,0,182.699,0,227.5s36.449,81.25,81.25,81.25s81.25-36.449,81.25-81.25
		S126.051,146.25,81.25,146.25z"/>
	<path d="M373.75,146.25c-44.802,0-81.25,36.449-81.25,81.25s36.448,81.25,81.25,81.25S455,272.301,455,227.5
		S418.552,146.25,373.75,146.25z"/>
	<path d="M242.5,179.718V147.5h-30v32.218l-25.77,12.4c3.74,11.12,5.77,23.018,5.77,35.382c0,12.223-1.987,23.99-5.646,35h81.292
		c-3.659-11.01-5.646-22.777-5.646-35c0-12.364,2.03-24.262,5.77-35.382L242.5,179.718z"/>
</g>
<g>
</g>
<g>
</g>
<g>
</g>
<g>
</g>
<g>
</g>
<g>
</g>
<g>
</g>
<g>
</g>
<g>
</g>
<g>
</g>
<g>
</g>
<g>
</g>
<g>
</g>
<g>
</g>
<g>
</g>
</svg>
