<?xml version="1.0" encoding="iso-8859-1"?>
<!-- Generator: Adobe Illustrator 19.0.0, SVG Export Plug-In . SVG Version: 6.00 Build 0)  -->
<svg version="1.1" id="Layer_1" xmlns="http://www.w3.org/2000/svg" xmlns:xlink="http://www.w3.org/1999/xlink" x="0px" y="0px"
	 viewBox="0 0 436.127 436.127" style="enable-background:new 0 0 436.127 436.127;" xml:space="preserve">
<path d="M350.359,118.777C342.546,52.644,286.297,1.345,218.063,1.345S93.581,52.644,85.768,118.777
	C38.402,118.777,0,157.174,0,204.54c0,47.366,38.397,85.763,85.763,85.763h117.3v144.479h30V290.303h117.3
	c47.366,0,85.763-38.397,85.763-85.763C436.127,157.174,397.725,118.777,350.359,118.777z M267.457,216.431l-34.394-34.393v108.265
	h-30V182.037l-34.394,34.393l-21.213-21.213l70.606-70.607l70.606,70.607L267.457,216.431z"/>
<g>
</g>
<g>
</g>
<g>
</g>
<g>
</g>
<g>
</g>
<g>
</g>
<g>
</g>
<g>
</g>
<g>
</g>
<g>
</g>
<g>
</g>
<g>
</g>
<g>
</g>
<g>
</g>
<g>
</g>
</svg>
