<?xml version="1.0" encoding="iso-8859-1"?>
<!-- Generator: Adobe Illustrator 19.0.0, SVG Export Plug-In . SVG Version: 6.00 Build 0)  -->
<svg version="1.1" id="Layer_1" xmlns="http://www.w3.org/2000/svg" xmlns:xlink="http://www.w3.org/1999/xlink" x="0px" y="0px"
	 viewBox="0 0 454.65 454.65" style="enable-background:new 0 0 454.65 454.65;" xml:space="preserve">
<path d="M359.621,117.431C351.807,51.299,295.559,0,227.325,0S102.843,51.299,95.029,117.431c-47.366,0-85.768,38.397-85.768,85.763
	c0,47.366,38.397,85.763,85.763,85.763h117.3v108.266l-34.394-34.393l-21.213,21.213l70.606,70.607l70.606-70.607l-21.213-21.213
	l-34.394,34.393V288.958h117.3c47.366,0,85.763-38.397,85.763-85.763C445.388,155.829,406.986,117.431,359.621,117.431z
	 M242.325,288.958h-30V144.479h30V288.958z"/>
<g>
</g>
<g>
</g>
<g>
</g>
<g>
</g>
<g>
</g>
<g>
</g>
<g>
</g>
<g>
</g>
<g>
</g>
<g>
</g>
<g>
</g>
<g>
</g>
<g>
</g>
<g>
</g>
<g>
</g>
</svg>
