<?xml version="1.0" encoding="iso-8859-1"?>
<!-- Generator: Adobe Illustrator 19.0.0, SVG Export Plug-In . SVG Version: 6.00 Build 0)  -->
<svg version="1.1" id="Layer_1" xmlns="http://www.w3.org/2000/svg" xmlns:xlink="http://www.w3.org/1999/xlink" x="0px" y="0px"
	 viewBox="0 0 436.127 436.127" style="enable-background:new 0 0 436.127 436.127;" xml:space="preserve">
<path d="M350.359,191.016c-7.814-66.133-64.062-117.431-132.296-117.431S93.581,124.883,85.768,191.016
	C38.402,191.016,0,229.413,0,276.779c0,47.366,38.397,85.763,85.763,85.763h264.601c47.366,0,85.763-38.397,85.763-85.763
	C436.127,229.413,397.725,191.016,350.359,191.016z M280.563,287.542c0,16.542-13.458,30-30,30s-30-13.458-30-30s13.458-30,30-30
	v-60h-65c0,0,0,88.296,0,90c0,16.542-13.458,30-30,30s-30-13.458-30-30s13.458-30,30-30v-90h125
	C280.563,167.542,280.563,285.838,280.563,287.542z"/>
<g>
</g>
<g>
</g>
<g>
</g>
<g>
</g>
<g>
</g>
<g>
</g>
<g>
</g>
<g>
</g>
<g>
</g>
<g>
</g>
<g>
</g>
<g>
</g>
<g>
</g>
<g>
</g>
<g>
</g>
</svg>
