<?xml version="1.0" encoding="iso-8859-1"?>
<!-- Generator: Adobe Illustrator 19.0.0, SVG Export Plug-In . SVG Version: 6.00 Build 0)  -->
<svg version="1.1" id="Layer_1" xmlns="http://www.w3.org/2000/svg" xmlns:xlink="http://www.w3.org/1999/xlink" x="0px" y="0px"
	 viewBox="0 0 367.136 367.136" style="enable-background:new 0 0 367.136 367.136;" xml:space="preserve">
<path d="M336.554,280.265c18.898-29.33,28.888-63.352,28.888-98.391C365.442,81.588,283.854,0,183.568,0S1.694,81.588,1.694,181.874
	c0,34.777,9.851,68.584,28.488,97.768c18.133,28.394,43.703,51.175,73.944,65.881l13.119-26.979
	c-52.77-25.66-85.551-78.029-85.551-136.669C31.694,98.13,99.824,30,183.568,30s151.874,68.13,151.874,151.874
	c0,49.847-24.9,96.439-65.042,124.571l-52.964-53.219v113.91h113.365l-38.953-39.14C309.409,314.972,324.58,298.849,336.554,280.265
	z"/>
<g>
</g>
<g>
</g>
<g>
</g>
<g>
</g>
<g>
</g>
<g>
</g>
<g>
</g>
<g>
</g>
<g>
</g>
<g>
</g>
<g>
</g>
<g>
</g>
<g>
</g>
<g>
</g>
<g>
</g>
</svg>
