<?xml version="1.0" encoding="iso-8859-1"?>
<!-- Generator: Adobe Illustrator 19.0.0, SVG Export Plug-In . SVG Version: 6.00 Build 0)  -->
<svg version="1.1" id="Layer_1" xmlns="http://www.w3.org/2000/svg" xmlns:xlink="http://www.w3.org/1999/xlink" x="0px" y="0px"
	 viewBox="0 0 455 455" style="enable-background:new 0 0 455 455;" xml:space="preserve">
<path d="M227.5,0C101.855,0,0,101.855,0,227.5S101.855,455,227.5,455S455,353.145,455,227.5S353.145,0,227.5,0z M117.5,262.5
	c-19.299,0-35-15.701-35-35s15.701-35,35-35s35,15.701,35,35S136.799,262.5,117.5,262.5z M227.5,262.5c-19.299,0-35-15.701-35-35
	s15.701-35,35-35c19.299,0,35,15.701,35,35S246.799,262.5,227.5,262.5z M337.5,262.5c-19.299,0-35-15.701-35-35s15.701-35,35-35
	s35,15.701,35,35S356.799,262.5,337.5,262.5z"/>
<g>
</g>
<g>
</g>
<g>
</g>
<g>
</g>
<g>
</g>
<g>
</g>
<g>
</g>
<g>
</g>
<g>
</g>
<g>
</g>
<g>
</g>
<g>
</g>
<g>
</g>
<g>
</g>
<g>
</g>
</svg>
