<svg xmlns="http://www.w3.org/2000/svg" width="60.22" height="19.78" viewBox="0 0 60.22 19.78">
  <defs>
    <style>
      .cls-1 {
        fill: #c3c3c6;
        fill-rule: evenodd;
      }
    </style>
  </defs>
  <path id="Forme_14" data-name="Forme 14" class="cls-1" d="M1080.16,1512.03l-5.49-6.04a1.335,1.335,0,0,0-1.9-.08,1.368,1.368,0,0,0-.07,1.92l3.37,3.71h-25.03v-4.24a1.4,1.4,0,1,0-2.79,0v4.24h-18.16a7.038,7.038,0,0,1-6.98-7.07,1.4,1.4,0,1,0-2.79,0,9.914,9.914,0,0,0,4.77,8.48,9.914,9.914,0,0,0-4.77,8.48,1.4,1.4,0,1,0,2.79,0,7.036,7.036,0,0,1,6.98-7.06h18.16v4.24a1.4,1.4,0,1,0,2.79,0v-4.24h25.04l-3.39,3.75a1.369,1.369,0,0,0,.09,1.92,1.341,1.341,0,0,0,.9.35,1.321,1.321,0,0,0,.99-0.44l5.49-6.08A1.377,1.377,0,0,0,1080.16,1512.03Z" transform="translate(-1020.31 -1503.06)"/>
</svg>
