<svg xmlns="http://www.w3.org/2000/svg" width="33.56" height="21.63" viewBox="0 0 33.56 21.63">
  <defs>
    <style>
      .cls-1 {
        fill: #3bb7e8;
        fill-rule: evenodd;
      }
    </style>
  </defs>
  <path id="Forme_3" data-name="Forme 3" class="cls-1" d="M1081.07,1370.93h-30.64a1.462,1.462,0,0,1-1.47-1.45v-18.71a1.462,1.462,0,0,1,1.47-1.45h30.64a1.462,1.462,0,0,1,1.47,1.45v18.71A1.462,1.462,0,0,1,1081.07,1370.93Zm-30.24-1.83h29.84v-17.94h-29.84v17.94Zm14.78-1.92a7.336,7.336,0,1,1,7.48-7.34A7.414,7.414,0,0,1,1065.61,1367.18Zm0-12.58a5.241,5.241,0,1,0,5.35,5.24A5.293,5.293,0,0,0,1065.61,1354.6Zm-4.54,1.57h-10.44v-1.57h10.44v1.57Zm19.78,0h-10.44v-1.57h10.44v1.57Z" transform="translate(-1048.97 -1349.31)"/>
</svg>
