<svg xmlns="http://www.w3.org/2000/svg" width="24" height="54" viewBox="0 0 24 54">
  <defs>
    <style>
      .cls-1 {
        fill: #ada79b;
        fill-rule: evenodd;
      }
    </style>
  </defs>
  <path id="scrol_down" data-name="scrol down" class="cls-1" d="M1135.99,831.075a12.01,12.01,0,1,1,24.02,0v14.26a12.01,12.01,0,1,1-24.02,0v-14.26Zm2.19,0v14.26a9.82,9.82,0,1,0,19.64,0v-14.26A9.82,9.82,0,1,0,1138.18,831.075Zm8.73-3.289a1.09,1.09,0,1,1,2.18,0v1.451a1.09,1.09,0,1,1-2.18,0v-1.451Zm1.09,42.559,8.07-8.116a1.1,1.1,0,0,1,1.55,0,1.113,1.113,0,0,1,0,1.552l-8.85,8.893a1.086,1.086,0,0,1-1.54,0l-8.87-8.919a1.094,1.094,0,0,1,0-1.551,1.082,1.082,0,0,1,1.54,0Z" transform="translate(-1136 -819)"/>
</svg>
