<svg xmlns="http://www.w3.org/2000/svg" width="14.59" height="30.844" viewBox="0 0 14.59 30.844">
  <defs>
    <style>
      .cls-1 {
        fill: #ada79b;
        fill-rule: evenodd;
      }
    </style>
  </defs>
  <path id="faceboutch" class="cls-1" d="M1438.12,187.556v0.007s0,0,.01,0C1438.12,187.56,1438.12,187.557,1438.12,187.556Zm2.43,21.3v0.021h0.3a0.106,0.106,0,0,1,.17-0.112,0.17,0.17,0,0,1,.12.112h2.4a1.34,1.34,0,0,0-.12-0.1c0.09-.186-0.1-0.2-0.28-0.126,0.12-.22-0.01-0.345-0.06-0.081a0.523,0.523,0,0,1-.04-0.439c-0.1.109-.38,0.2-0.42-0.06-0.01-.106.31-0.14,0.38-0.045a0.234,0.234,0,0,1,.04.105,0.609,0.609,0,0,1,.24.143c0.23,0.246.15-.16,0.31-0.187a0.212,0.212,0,0,1,.22.342,0.762,0.762,0,0,1,.01.449h0.16V206.45a0.652,0.652,0,0,1-.15-0.145c-0.11-.189.02-0.2,0.15-0.182v-0.339a0.1,0.1,0,0,1-.1-0.01,0.21,0.21,0,0,1,.1-0.382v-3.923c-0.12.113-.25,0.21-0.3-0.007a0.814,0.814,0,0,1,.23-0.405,0.145,0.145,0,0,1,.07-0.02v-8.193h4.63l0.13-1.724c0-.009-0.01-0.01-0.01-0.018a0.036,0.036,0,0,1,.01,0l0.12-1.553h-0.12V188.97a0.279,0.279,0,0,1,.17-0.01l0.05-.731h-4.98v-3.6a2.866,2.866,0,0,1,.03-0.309c-0.09.26-.39-0.143-0.45-0.227a0.157,0.157,0,0,1,.04-0.144c0.22-.363.44,0.036,0.44,0.069a0.746,0.746,0,0,1,0,.15,1.856,1.856,0,0,1,1.81-1.2v-0.544c0.16,0.054.51,0.29,0.28,0.531,0.05,0,.1-0.007.15-0.007,0.13,0,.27.006,0.4,0.014a0.216,0.216,0,0,1-.12-0.037,0.406,0.406,0,0,0-.18-0.582,0.457,0.457,0,0,1,.62.2,0.276,0.276,0,0,1-.24.421,10.952,10.952,0,0,1,2.04.365l0.78-4.724a19.255,19.255,0,0,0-5.6-.574,6.98,6.98,0,0,0-1.88.256c-0.01,0-.01.013-0.02,0.017a0.3,0.3,0,0,1-.07.016c-0.21.061-.4,0.14-0.59,0.214,0.07,0.086.18,0.19,0.04,0.217a0.257,0.257,0,0,1-.2-0.162c-0.04.019-.09,0.029-0.13,0.05a0.706,0.706,0,0,0,.14.138,0.8,0.8,0,0,1,.49,1.163c-0.32.378-.26-0.276-0.32-0.473a2.61,2.61,0,0,0-.58-0.674,4.934,4.934,0,0,0-.88.611c0.09,0.128.15,0.332,0.22,0.274,0.35-.281.33,0.186,0.23,0.339a1.718,1.718,0,0,0-.23-0.093,0.292,0.292,0,0,1-.38-0.34,6.547,6.547,0,0,0-.46.514,1.261,1.261,0,0,1,.19.472,1.206,1.206,0,0,1-.32-0.328c-0.03.04-.07,0.071-0.1,0.112a3.4,3.4,0,0,0-.23.435h0.13v0.681c-0.13-.033-0.33-0.156-0.18-0.311,0.1-.108.01-0.148-0.05-0.163a9.039,9.039,0,0,0-.67,3.709c0.07-.106.2-0.268,0.3-0.137a0.4,0.4,0,0,1-.3.163v0.039a1.787,1.787,0,0,1,.03.451,0.074,0.074,0,0,0-.04.01v1.8c0.24-.02.47,0.065,0.32,0.406a4.973,4.973,0,0,0,.39-0.507c-0.08.019-.16,0.014-0.17-0.083V186.72c-0.04.068-.11,0.106-0.26,0.012a1.124,1.124,0,0,1-.16-0.139c-0.22-.217.05-0.3,0.27-0.247a0.3,0.3,0,0,1,.17.243c0-.01.01-0.019,0.03-0.01a0.447,0.447,0,0,1,.19.262,0.2,0.2,0,0,1,.22-0.067,0.231,0.231,0,0,1,.15.365,6.01,6.01,0,0,0,1.05-.373v0.473a0.721,0.721,0,0,0-.45-0.175,2.534,2.534,0,0,0,1.06.613l0.08-.15c-0.27.072-.36-0.238-0.47-0.4a0.549,0.549,0,0,1,.47.4c0.12,0.17.3,0.015,0.21-.149a0.717,0.717,0,0,0-.14-0.091,0.251,0.251,0,0,1,.01-0.424c0.07-.047.23-0.167,0.29,0.029a1.672,1.672,0,0,0-.16.486l0.25,0.28a0.938,0.938,0,0,0-.6.323,0.859,0.859,0,0,1-.47-0.4c-0.12.024-.07,0.226-0.07,0.3-0.18.091-.3-0.028-0.19-0.237a0.817,0.817,0,0,1-.37.179c-0.2-.217.09-0.245,0.26-0.184a0.715,0.715,0,0,0-.77-0.476c-0.08.18-.19,0.372,0.16,0.542a1.15,1.15,0,0,1-.98-0.271,0.837,0.837,0,0,0-.32.346v0.447H1435v4.615h3.12v11.4a0.1,0.1,0,0,0,.07.026c0.01-.061.04-0.2,0.04-0.246,0.01-.078.03-0.309,0.04-0.424,0.39-.078.19,0.453,0.2,0.657a0.2,0.2,0,0,0-.26.15,0.524,0.524,0,0,1-.09.234v0.893a0.227,0.227,0,0,1,.2.027c0,0.1-.11.428,0.22,0.4-0.1-.3,0-0.505.36-0.39-0.05-.207.17-0.085,0.3-0.1l-0.02.413a0.247,0.247,0,0,1-.24-0.2,0.731,0.731,0,0,1-.56.544,0.5,0.5,0,0,1-.26-0.031v0.079c0.05,0,.09.009,0.08,0.067a0.2,0.2,0,0,1-.08.094v2.436h2.22A0.169,0.169,0,0,1,1440.55,208.853Zm7.81-27.435c0,0.063-.17.245-0.22,0.059C1448.11,181.357,1448.29,181.42,1448.36,181.418Zm-0.98-.087c-0.24.218,0.09,0.373,0.24,0.278,0.27-.172.29,0.085,0.32,0.264,0.07,0.419.97,0.522,0.62,0.869a0.659,0.659,0,0,1-.69.118,0.236,0.236,0,0,0-.02.163c0.07,0.2-.28.012-0.29-0.135,0-.11-0.12-0.5.15-0.4-0.04-.254-0.06-0.573-0.09-0.781-0.09.361-.31,0.423-0.44,0.133a1.3,1.3,0,0,0-.39-0.5A0.743,0.743,0,0,1,1447.38,181.331Zm-1.65-.825c0.46-.154.1,0.417-0.15,0.425A0.358,0.358,0,0,1,1445.73,180.506Zm-2.19,13.946c0-.142-0.11-0.476.1-0.427a0.391,0.391,0,0,1,.29.427h-0.39Zm4.75-5.236c0.18-.15.13,0.175,0.01,0.2,0.05,0.018.24,0.141,0.06,0.2a0.508,0.508,0,0,1-.31.072A2.857,2.857,0,0,0,1448.29,189.216Zm-0.9,1.436a0.507,0.507,0,0,1,.53-0.035,0.435,0.435,0,0,1-.61.205v0a0.49,0.49,0,0,1-.15-0.147C1447.1,190.51,1447.29,190.577,1447.39,190.652Zm-0.55-1.684-0.02-.558C1447.23,188.4,1446.99,188.814,1446.84,188.968Zm0.2,1.908c-0.02.118-.25-0.042-0.34-0.14C1446.78,190.687,1447.08,190.667,1447.04,190.876Zm-0.47-1.24c0.06,0.25-.28.105-0.43,0.117C1446.08,189.5,1446.42,189.649,1446.57,189.636Zm-0.78-.868a0.364,0.364,0,0,1-.39.3,0.248,0.248,0,0,0-.09-0.273A1.534,1.534,0,0,1,1445.79,188.768Zm-0.57,2.886c0.03,0.04.08,0.251,0.01,0.228a0.49,0.49,0,0,1-.17-0.1C1444.91,191.611,1445.18,191.613,1445.22,191.654Zm-1.42-.349c0.21-.221.3,0.055,0.25,0.277s-0.63.3-.38-0.108A1.245,1.245,0,0,1,1443.8,191.305Zm-0.07-6.522a0.262,0.262,0,0,1-.18.083C1443.4,184.877,1443.61,184.665,1443.73,184.783Zm-0.12-6.444c0.21-.372.44,0.067,0.27,0.212-0.06.062-.43,0.143-0.39,0A0.662,0.662,0,0,1,1443.61,178.339Zm0.02,26.775a0.209,0.209,0,0,1-.24-0.086C1443.31,204.764,1443.62,204.969,1443.63,205.114Zm-4.92-18.678c-0.09-.047-0.27-0.121-0.18-0.225a0.194,0.194,0,0,1,.19-0.079A0.949,0.949,0,0,1,1438.71,186.436Zm0.83-5.937a1.1,1.1,0,0,0,.49-0.367,1.168,1.168,0,0,1,.05.572A0.472,0.472,0,0,1,1439.54,180.5Zm0.1,0.52c0.08,0.041.23,0.195,0.06,0.221a0.8,0.8,0,0,1-.14-0.074C1439.39,181.092,1439.55,180.968,1439.64,181.019Zm0.24,0.965c0.07,0.043.3,0.01,0.2,0.193-0.15-.036-0.28.079-0.45,0.049l0.1-.114C1439.68,182.026,1439.73,181.89,1439.88,181.984Zm-0.9,2.812a0.378,0.378,0,0,1,.42-0.294v0.4C1439.26,184.9,1438.93,185.01,1438.98,184.8Zm0.68,1.721a0.213,0.213,0,0,1,.12-0.3A0.27,0.27,0,0,1,1439.66,186.517Zm0-1.168a1.516,1.516,0,0,0-.11.97c-0.16-.078-0.52-0.273-0.26-0.565-0.11-.248.03-0.552,0.37-0.405a0.26,0.26,0,0,1,.15-0.425A0.472,0.472,0,0,1,1439.66,185.349Zm-0.25-.213v-0.321h0.29c0.07,0.143-.06.182-0.16,0.137A0.366,0.366,0,0,1,1439.41,185.136Zm0.37-.48a1.007,1.007,0,0,1-.11-0.538h-0.11v-0.235a0.388,0.388,0,0,0-.13-0.119c0.01,0.147-.28.489-0.23,0.17a5.279,5.279,0,0,0,.05-0.779c0.2-.1.34-0.045,0.39,0.095,0.02-.064.09-0.1,0.14,0.017a1.74,1.74,0,0,0,.01.229,0.245,0.245,0,0,1-.14-0.127,0.488,0.488,0,0,1-.06.214c0.4-.092.94-0.125,0.92,0.365a0.574,0.574,0,0,0-.48.1c0.16-.01.51,0.216,0.14,0.319C1440.2,184.543,1440.05,185.012,1439.78,184.656Zm0.7,1.782c-0.04.034-.13,0.129-0.14,0.132-0.21.12-.18-0.109-0.15-0.208l0.29,0.076c0.02-.047.07-0.245,0.14-0.071Zm0.11-4.179a0.489,0.489,0,0,1-.54-0.3c-0.04-.078.07-0.673,0.28-0.254C1440.79,181.462,1440.61,182.067,1440.59,182.259Zm-5.47,6.579c-0.11-.053.06-0.227,0.11-0.107Zm0.93,1.878c0.06-.136.26,0.021,0.25,0.125C1436.18,190.884,1435.99,190.83,1436.05,190.716Zm1.4,1.549a0.761,0.761,0,0,0,.17-0.049c0.12-.105.25-0.358,0.32-0.275C1438.26,192.361,1437.74,192.4,1437.45,192.265Zm1.09,15.17c-0.3.12-.46-0.034-0.36-0.264a0.384,0.384,0,0,1,.13-0.163C1438.69,206.753,1438.71,207.365,1438.54,207.435Zm2.09-15.676c0.08-.025.23-0.006,0.2,0.106a0.3,0.3,0,0,1-.27.158A0.216,0.216,0,0,1,1440.63,191.759Zm-0.02,14.651a1.885,1.885,0,0,0,.16.172,0.46,0.46,0,0,1-.03.227C1440.65,206.716,1440.5,206.529,1440.61,206.41Zm0.19,1.7c-0.26.112-.12-0.123-0.06-0.189C1440.95,207.674,1440.91,208.06,1440.8,208.109Zm1.43-2.369a1.172,1.172,0,0,0-.32,0l-0.08.138c0.12,0.216-.16.167-0.22,0.06-0.11.01-.49,0.06-0.25-0.162a2.158,2.158,0,0,1,.55-0.036l0.01-.179c-0.06-.076-0.43-0.352-0.09-0.394l0.09,0.394a0.363,0.363,0,0,0,.42-0.15,1.07,1.07,0,0,1,.36.083c0.12,0.108.05,0.459-.17,0.246C1442.42,205.819,1442.31,205.935,1442.23,205.74Zm-0.79-2.957a0.629,0.629,0,0,1-.29-0.023,0.775,0.775,0,0,1,.23-0.183C1441.51,202.48,1441.45,202.723,1441.44,202.783Zm0.18,1.581c0.05,0.054.25,0.006,0.22,0.146a0.423,0.423,0,0,1-.31-0.011C1441.37,204.442,1441.53,204.272,1441.62,204.364Zm-0.1,2.88c0.05,0.05.2,0.182,0.25,0.234a0.546,0.546,0,0,1-.5-0.242C1441.16,207.081,1441.44,207.176,1441.52,207.244Zm0.24,0.048c-0.12.006-.06-0.167-0.07-0.244a0.272,0.272,0,0,1,.1-0.057C1441.93,206.954,1441.93,207.279,1441.76,207.292Zm0.74-7.54c0.05,0.157-.25.093-0.28-0.034C1442.11,199.31,1442.47,199.692,1442.5,199.752Zm-0.21-4.871a0.211,0.211,0,0,1,.15.236h-0.21C1442.23,195.039,1442.17,194.855,1442.29,194.881Zm0.44,12.7c0.14,0.254-.18.13-0.15-0.167-0.15.314-.26,0.2-0.21,0.083a0.341,0.341,0,0,1,.23-0.167C1442.69,207.3,1442.87,207.455,1442.73,207.581Zm0-11.723c0.1,0.2-.09.211-0.21,0.162a0.41,0.41,0,0,1,.15-0.265C1442.73,195.7,1442.93,195.777,1442.73,195.858Zm0.32,10.958a1.987,1.987,0,0,0,.04.248c0.09,0.076-.12.126-0.18,0.234a0.594,0.594,0,0,1,.05-0.348c-0.26-.082-0.02-0.182.09-0.134-0.03-.129.03-0.308,0.17-0.278S1443.15,206.764,1443.05,206.816Zm0-28.064c0.14,0.261-.11.268-0.15,0.127C1442.83,178.625,1443.04,178.739,1443.05,178.752Zm-0.07,3.372,0.08,0.46a0.19,0.19,0,0,0-.27.163,0.832,0.832,0,0,1-.15-0.57C1442.54,181.911,1442.86,182.119,1442.98,182.124Zm-0.18,1.061a0.235,0.235,0,0,1-.42,0,0.153,0.153,0,0,1,.07-0.181C1442.56,182.909,1442.86,183.027,1442.8,183.185Zm-0.25-4.548c0.06,0.25-.29.1-0.43,0.117C1442.05,178.5,1442.4,178.648,1442.55,178.637Zm-0.66,6.637a0.486,0.486,0,0,1,.12-0.494,0.6,0.6,0,0,1,.55-0.28,0.828,0.828,0,0,0-.32.742C1441.91,185.559,1441.55,185.409,1441.89,185.274Zm-0.07,3.466c0.06,0.168-.03.355-0.21,0.2-0.05-.04.16-0.125,0.15-0.141C1441.68,188.6,1441.78,188.636,1441.82,188.74Zm-0.1-6.09c-0.04.041-.45,0.1-0.4-0.088C1441.39,182.257,1441.67,182.494,1441.72,182.65Zm-0.21,1.144c0.05-.216.32-0.352,0.21,0.036a0.411,0.411,0,0,1-.54.228A0.444,0.444,0,0,1,1441.51,183.794Zm-0.38,2.419,0.4-.087c0.02-.074-0.04-0.258.07-0.229,0.18,0.046.01,0.227-.07,0.229C1441.45,186.189,1441.18,186.559,1441.13,186.213Zm0.34,1.015c-0.09-.132.08-0.21,0.12-0.03,0.08-.006.27,0.131,0.09,0.156A0.432,0.432,0,0,1,1441.47,187.228Zm0.33,8.373c-0.1-.194.02-0.311,0.18-0.229a1.024,1.024,0,0,0,.13.427,0.2,0.2,0,0,1-.34.045,2.969,2.969,0,0,0-.41-0.3A0.621,0.621,0,0,1,1441.8,195.6Zm-0.64-2.762c-0.18-.171.07-0.226,0.14-0.167C1441.48,192.842,1441.23,192.9,1441.16,192.839Zm0.08-4.51a0.332,0.332,0,0,1,.1.278,0.507,0.507,0,0,0-.18-0.16C1440.98,188.41,1441.16,188.234,1441.24,188.329Zm0.17,19.935c0.04-.113-0.14-0.16-0.26-0.12v-0.332a1.782,1.782,0,0,1,.69.2l-0.06.061c0.05,0.1.24,0.287,0.06,0.4a1.527,1.527,0,0,1-.68.209,0.571,0.571,0,0,1-.09-0.416C1441.18,208.324,1441.36,208.446,1441.41,208.264Zm-0.37-20.039c-0.12.073-.25,0.146-0.06,0.218-0.02.246-.29,0.153-0.42,0.148a0.349,0.349,0,0,0-.08-0.367A0.524,0.524,0,0,1,1441.04,188.225Zm-0.59.982a0.227,0.227,0,0,1,.02.373c-0.16.095-.15-0.15-0.05-0.222C1440.37,189.257,1440.29,189.145,1440.45,189.207Zm-0.03,14.273c0.1,0.155-.1.323-0.27,0.291-0.15-.026-0.27-0.113-0.19-0.283A0.277,0.277,0,0,0,1440.42,203.48Zm-0.53-15.577c0.07,0.216.39,0.232,0.31,0.465a0.154,0.154,0,0,1-.29-0.011,1.862,1.862,0,0,0-.01-0.222A0.272,0.272,0,0,1,1439.89,187.9Zm0.07,10.546c0.07,0.013.31-.038,0.28,0.046a0.243,0.243,0,0,1-.32.143C1439.86,198.6,1439.72,198.4,1439.96,198.449Zm-0.54-10.427c0.05-.087.2,0.043,0.12,0.138C1439.37,188.365,1439.41,188.042,1439.42,188.022Zm0.06,9.614c0.17-.153.19,0.1,0.19,0.085,0.08,0.336-.18.206-0.27,0.061A0.22,0.22,0,0,1,1439.48,197.636Zm-0.16-4.118a0.264,0.264,0,0,1-.14.137v-0.4A0.2,0.2,0,0,1,1439.32,193.518Zm-0.13-4.892c0.12,0.262-.23.1-0.32,0.125C1438.75,188.488,1439.09,188.645,1439.19,188.626Zm-0.26,2.364c0.1,0.248.02,0.5-.21,0.329a2.191,2.191,0,0,1-.07-0.373C1438.49,190.319,1438.91,191.008,1438.93,190.99Zm0.16,10.557h-0.14v-0.315C1439.22,201.1,1439.07,201.458,1439.09,201.547Zm-0.7-5.567c0.08,0.049-.04.2-0.13,0.122C1438.06,195.926,1438.37,195.969,1438.39,195.98Zm-0.02,6.776c-0.16.074-.21-0.044-0.17-0.143a0.309,0.309,0,0,1,.08-0.085C1438.46,202.382,1438.52,202.7,1438.37,202.756Zm-0.02-13.082c-0.11-.092.18-0.257,0.26-0.33C1438.67,189.547,1438.67,189.936,1438.35,189.674Zm0.28,12.47c-0.2-.176.12-0.133,0.14-0.123C1438.85,202.071,1438.73,202.226,1438.63,202.144Zm0.45,1.409c-0.12.094,0.06,0.171,0.11,0.237-0.07.189-.2-0.04-0.28,0.07a1.3,1.3,0,0,1-.09-0.329,0.507,0.507,0,0,1,.13-0.68c-0.02-.1-0.26-0.325-0.01-0.254,0.14,0.035.09,0.2,0.01,0.254a0.894,0.894,0,0,0,.19.328A0.236,0.236,0,0,1,1439.08,203.553Zm-0.04-9.236c-0.05-.03.02-0.089,0.07-0.123s0.2-.144.2,0A0.175,0.175,0,0,1,1439.04,194.317Zm0.19,10.653c0.04-.167.23-0.07,0.32-0.079a0.3,0.3,0,0,1-.15.379c0-.083.05-0.287-0.07-0.228S1439.2,205.077,1439.23,204.97Zm0.11,1.962c-0.2-.2.25-0.538,0.08-0.808,0.05-.023.32-0.058,0.2-0.2-0.41-.473.39-0.22,0.45-0.092C1440.24,206.176,1439.66,206.567,1439.34,206.932Z" transform="translate(-1435 -178.031)"/>
</svg>
