<svg xmlns="http://www.w3.org/2000/svg" width="62" height="68" viewBox="0 0 62 68">
  <defs>
    <style>
      .cls-1 {
        fill: #c3c3c6;
        fill-rule: evenodd;
      }
    </style>
  </defs>
  <path id="Forme_12" data-name="Forme 12" class="cls-1" d="M1146.05,4653.48c0.11,3.7,1.23,6.62,2.59,6.62s2.49-2.92,2.6-6.63Zm5.04-3.05c-0.37-2.76-1.32-4.74-2.45-4.74s-2.08,1.98-2.44,4.76Zm-1.06,35.08a1.483,1.483,0,0,1-1.47,1.49h-0.12a1.485,1.485,0,0,1-1.48-1.49l0.02-22.32c-2.3-1.27-3.98-5.35-3.98-10.19a17.728,17.728,0,0,1,1.16-6.54l0.05-.12a6.757,6.757,0,0,1,2.75-3.53v-22.33a1.485,1.485,0,0,1,1.48-1.49h0.12a1.483,1.483,0,0,1,1.47,1.49l0.04,22.35c2.27,1.3,3.93,5.36,3.93,10.17,0,4.76-1.73,8.91-3.97,10.25v22.26Zm9.28-12.2a7.052,7.052,0,0,0,3.12.74,6.952,6.952,0,0,0,4.98-2.11l2.67-2.75-4.41-.09a6.869,6.869,0,0,0-6.32,4.12Zm3.12,3.29a9.535,9.535,0,0,1-4.61-1.19l-1.81-.99,0.97-2.21a9.46,9.46,0,0,1,8.69-5.67l0.2,0.01,5.74,0.12a1.911,1.911,0,0,1,1.74,1.18,1.876,1.876,0,0,1-.39,2.05l-3.69,3.82A9.585,9.585,0,0,1,1162.43,4676.6Zm-12.72-.24a6.951,6.951,0,0,0,7.72,2.79l3.69-1.09-3.66-2.17a6.965,6.965,0,0,0-7.69.42Zm5.75,5.63a9.533,9.533,0,0,1-8.1-4.53l-1.07-1.75,1.94-1.45a9.542,9.542,0,0,1,10.56-.56l4.92,2.92a1.9,1.9,0,0,1-.43,3.47l-5.12,1.51A9.48,9.48,0,0,1,1155.46,4681.99Zm9.63-17.25a6.539,6.539,0,0,0,1.65.2,6.949,6.949,0,0,0,5.93-3.34l1.97-3.29-4.17.87a6.84,6.84,0,0,0-5.36,5.47Zm1.65,2.76a9.7,9.7,0,0,1-2.62-.37l-1.98-.56,0.43-2.37a9.388,9.388,0,0,1,7.37-7.52l5.62-1.17a1.942,1.942,0,0,1,2.07.93,1.887,1.887,0,0,1-.01,1.92l-2.73,4.54A9.53,9.53,0,0,1,1166.74,4667.5Zm9.3-19.85-3.79,1.93a6.793,6.793,0,0,0-3.72,6.68l0.01,0.09a6.911,6.911,0,0,0,6.47-5.02Zm-7.68,11.26-2.19-.03-0.21-2.4a9.355,9.355,0,0,1,5.11-9.18l5.11-2.59a1.988,1.988,0,0,1,2.42.54,1.919,1.919,0,0,1,.32,1.67l-1.42,5.1A9.5,9.5,0,0,1,1168.36,4658.91Zm5.76-22.93-2.92,3.07a6.76,6.76,0,0,0-1.28,7.52l0.04,0.08a6.819,6.819,0,0,0,4.43-6.85Zm-5.55,13.83-1-2.19a9.282,9.282,0,0,1,1.75-10.33l3.95-4.13a1.9,1.9,0,0,1,1.4-.6,1.922,1.922,0,0,1,1.92,1.78l0.37,5.28a9.384,9.384,0,0,1-6.43,9.54Zm0.92-24.28-1.9,3.77a6.786,6.786,0,0,0,1,7.57l0.06,0.06a6.8,6.8,0,0,0,2.22-7.84Zm-1.23,14.83-1.6-1.8a9.309,9.309,0,0,1-1.38-10.4l2.56-5.09a1.94,1.94,0,0,1,3.53.16l1.91,4.94a9.332,9.332,0,0,1-3.34,10.99Zm-42.34,28.83,2.66,2.76a6.967,6.967,0,0,0,8.11,1.36l-0.04-.08a6.882,6.882,0,0,0-6.33-4.13l-0.15.01Zm7.64,7.41h0a9.554,9.554,0,0,1-6.84-2.89l-3.69-3.81a1.91,1.91,0,0,1-.39-2.06,1.937,1.937,0,0,1,1.74-1.18l5.94-.12a9.484,9.484,0,0,1,8.7,5.67l0.96,2.21-1.8.99A9.573,9.573,0,0,1,1133.56,4676.6Zm1.31,1.46,3.69,1.09a6.966,6.966,0,0,0,7.73-2.79l-0.08-.05a6.948,6.948,0,0,0-7.68-.42Zm5.66,3.93h0a9.531,9.531,0,0,1-2.7-.39l-5.12-1.51a1.927,1.927,0,0,1-1.36-1.59,1.893,1.893,0,0,1,.93-1.88l4.93-2.92a9.474,9.474,0,0,1,4.85-1.32,9.611,9.611,0,0,1,5.71,1.89l1.93,1.45-1.07,1.75A9.534,9.534,0,0,1,1140.53,4681.99Zm-19.17-23.68,1.96,3.29a6.949,6.949,0,0,0,5.93,3.34,6.539,6.539,0,0,0,1.65-.2l-0.01-.09a6.853,6.853,0,0,0-5.36-5.47Zm7.89,9.19h0a9.513,9.513,0,0,1-8.14-4.6l-2.73-4.54a1.887,1.887,0,0,1-.02-1.92,1.949,1.949,0,0,1,2.07-.93l5.62,1.17a9.4,9.4,0,0,1,7.37,7.52l0.44,2.37-1.99.56A9.64,9.64,0,0,1,1129.25,4667.5Zm-9.29-19.85,1.02,3.68a6.911,6.911,0,0,0,6.48,5.02l0.01-.09a6.808,6.808,0,0,0-3.72-6.68Zm7.67,11.26a9.489,9.489,0,0,1-9.13-6.89l-1.42-5.1a1.888,1.888,0,0,1,.32-1.67,1.985,1.985,0,0,1,2.42-.54l5.1,2.6a9.322,9.322,0,0,1,5.11,9.18l-0.21,2.39Zm-5.76-22.93-0.27,3.81a6.853,6.853,0,0,0,4.44,6.86l0.03-.08a6.756,6.756,0,0,0-1.27-7.53Zm5.55,13.83-1.96-.65a9.4,9.4,0,0,1-6.43-9.54l0.37-5.28a1.932,1.932,0,0,1,1.93-1.78,1.876,1.876,0,0,1,1.39.6l3.95,4.13a9.282,9.282,0,0,1,1.75,10.33Zm-0.91-24.28-1.38,3.56a6.791,6.791,0,0,0,2.21,7.84l0.06-.06a6.766,6.766,0,0,0,1-7.57Zm1.22,14.83-1.68-1.19a9.359,9.359,0,0,1-3.33-11l1.91-4.93a1.937,1.937,0,0,1,3.53-.17l2.55,5.1a9.275,9.275,0,0,1-1.37,10.39Z" transform="translate(-1117 -4619)"/>
</svg>
