<svg xmlns="http://www.w3.org/2000/svg" width="30.93" height="25.438" viewBox="0 0 30.93 25.438">
  <defs>
    <style>
      .cls-1 {
        fill: #ada79b;
        fill-rule: evenodd;
      }
    </style>
  </defs>
  <path id="twitteu" class="cls-1" d="M1429.35,271.835a6.644,6.644,0,0,0-.36.751c0.1-.048.24-0.06,0.34-0.1a0.479,0.479,0,0,1,.36.183c0-.1-0.06-0.284.06-0.272l0.08,0.248c0.03-.056.06-0.115,0.09-0.173C1429.74,272.26,1429.53,272.058,1429.35,271.835Zm0.12,3.332a1.063,1.063,0,0,1,.21-0.278,0.279,0.279,0,0,0-.28.083C1429.37,275.024,1429.32,275.419,1429.47,275.167Zm0.13-1.842a0.523,0.523,0,0,0,.11.087,0.953,0.953,0,0,1,.12-0.163,0.284,0.284,0,0,1-.06-0.071c-0.03-.071-0.07-0.363-0.27-0.228a0.7,0.7,0,0,0-.37.092c0.1-.213-0.07-0.247-0.22-0.218l-0.06.161a3.379,3.379,0,0,0,.54.443C1429.43,273.394,1429.5,273.2,1429.6,273.325Zm-0.77,2.2a0.223,0.223,0,0,0-.08.03l0.07,0.236,0.4-.2A0.43,0.43,0,0,0,1428.83,275.523Zm0.41,0.565-0.27.149a1.448,1.448,0,0,1,.09.438,1.231,1.231,0,0,0-.32-0.008c0.03,0.129.05,0.261,0.09,0.388a0.135,0.135,0,0,0,.08-0.158,0.267,0.267,0,0,1,.31,0A1.837,1.837,0,0,0,1429.24,276.088Zm-0.65-.21c0.01,0.045.02,0.087,0.03,0.132a0.289,0.289,0,0,0,.2-0.221A0.983,0.983,0,0,0,1428.59,275.878Zm0.13-2.488a0.052,0.052,0,0,1,.01-0.037A0.052,0.052,0,0,0,1428.72,273.39Zm0.24,3.961a2.661,2.661,0,0,0,.11.26,0.921,0.921,0,0,1-.01-0.234A0.308,0.308,0,0,1,1428.96,277.351Zm2.54,8.822a6.14,6.14,0,0,1-.83-0.079,7.217,7.217,0,0,0,.32.8,1.592,1.592,0,0,0,.2-0.355,0.355,0.355,0,0,1,.34-0.058,0.228,0.228,0,0,0-.04-0.148A0.129,0.129,0,0,1,1431.5,286.173Zm3.19,3.682c-0.03-.112-0.06-0.226-0.1-0.341C1434.42,289.644,1434.57,289.756,1434.69,289.855Zm23.42-16.182a12.575,12.575,0,0,1-3.64,1.012,6.458,6.458,0,0,0,2.79-3.551,12.733,12.733,0,0,1-2.01.968,0.366,0.366,0,0,1-.37.106,12.409,12.409,0,0,1-1.65.481,6.513,6.513,0,0,0-1.56-1.192h-0.37a0.424,0.424,0,0,1,.1-0.151,6.193,6.193,0,0,0-2.8-.683,6.272,6.272,0,0,0-1.54.212,0.04,0.04,0,0,0-.02.012v0c-0.1.024-.19,0.059-0.28,0.088a0.158,0.158,0,0,1,.1.094c0.01,0.2.11,0.565-.24,0.605a1.425,1.425,0,0,1-.28-0.173,0.483,0.483,0,0,1,.04-0.277c0.05,0.085.16,0.2,0.21,0.111a0.382,0.382,0,0,0-.05-0.284c0-.011.01-0.005,0.02-0.014-0.16.055-.32,0.094-0.47,0.16a0.152,0.152,0,0,1,0,.16c-0.07.064-.21,0.054-0.22-0.039a6.387,6.387,0,0,0-3.1,3.252s0,0,.01,0l-0.02.013c-0.04.1-.06,0.211-0.1,0.314,0.04,0.049.03,0.074-.02,0.073a6.917,6.917,0,0,0-.35,1.775,0.11,0.11,0,0,1,.07,0c0.09,0.1.01,0.138-.08,0.152,0,0.062-.02.121-0.02,0.184a7,7,0,0,0,.16,1.462,17.864,17.864,0,0,1-5.68-1.241c-0.03.116-.27,0.033-0.34,0.018a1.88,1.88,0,0,0-.42.094c-0.1,0-.1-0.1-0.03-0.145a1.159,1.159,0,0,1,.63-0.04c-0.46-.191-0.92-0.4-1.37-0.625a0.6,0.6,0,0,1,.12.411,1.1,1.1,0,0,1-1.14-.135c0.24-.073.18-0.178,0.08-0.3,0.16-.182.34,0.3,0.4,0.384a1.509,1.509,0,0,0,.4-0.065c0.13-.15-0.23-0.3-0.04-0.383h0c-0.11-.062-0.22-0.137-0.34-0.2-0.02.036-.07,0.039-0.11-0.04a0.468,0.468,0,0,0-.15-0.113c-0.07.063-.26-0.055-0.13-0.077a18.1,18.1,0,0,1-3.21-2.41c-0.08-.008-0.17-0.031-0.21-0.031-0.12,0-.16-0.152-0.27-0.144,0.11,0.251-.22.4-0.1,0.586,0.1-.071.33-0.127,0.31,0.054a0.181,0.181,0,0,0-.05.285,0.153,0.153,0,0,1,.22.117,0.259,0.259,0,0,1,.33.183c0.05-.015.28,0.263,0.02,0.206a0.455,0.455,0,0,1-.35-0.389c-0.13.07-.26-0.065-0.26,0.177a1.291,1.291,0,0,0,.05.445c-0.27.143-.36-0.465-0.54-0.114,0.06-.143-0.15-0.53-0.26-0.425,0.07-.188.25-0.333,0.08-0.418a1.128,1.128,0,0,1-.39.216c0.11,0.411.41,0.212,0.5,0.589-0.1,0-.31-0.048-0.25.077a1.085,1.085,0,0,1,.36.129,2.964,2.964,0,0,1,.13,1.285c-0.07-.056-0.29.02-0.11,0.143,0.1,0.063-.02.142-0.1,0.152-0.1.113,0.13,0.408-.11,0.3-0.13-.068-0.39-0.024-0.22.18a2.317,2.317,0,0,0,.38,0c-0.05.1-.15,0.387,0.04,0.261,0.09-.065.17-0.094,0.11,0.036-0.06.107-.21,0.256-0.33,0.091a4.794,4.794,0,0,0-.48-0.392c-0.16.079,0.04,0.22,0.08,0.329,0.09-.041.22,0,0.15,0.145h-0.5a0.725,0.725,0,0,0-.05.338,6.8,6.8,0,0,0,.87,1.271v-0.2h0.48a1.267,1.267,0,0,0-.07.286,0.91,0.91,0,0,1,.16.439,6.554,6.554,0,0,0,.61.521,6.31,6.31,0,0,1-2.88-.8v0.079a6.25,6.25,0,0,0,.07.754c0.08,0,.17-0.008.24-0.007a0.241,0.241,0,0,1-.22.2,6.365,6.365,0,0,0,1.48,3.264,0.647,0.647,0,0,0-.1-0.639c-0.24-.33.26,0.1,0.31,0.132a3.934,3.934,0,0,1,.06.785c0.08,0.088.18,0.162,0.27,0.246a0.087,0.087,0,0,1,.1,0,0.485,0.485,0,0,1,.25.147,0.1,0.1,0,0,1-.03.137,6.3,6.3,0,0,0,1.78,1.022,1.045,1.045,0,0,1,.21-0.16v-0.454a0.684,0.684,0,0,1-.49.345,2.393,2.393,0,0,0,.48-0.961,2.98,2.98,0,0,1,.37.063c0.1-.012.19-0.226,0.34-0.061a0.527,0.527,0,0,1,.25.5c-0.12-.081-0.21-0.208-0.36-0.119a0.36,0.36,0,0,1-.36.161,2.009,2.009,0,0,0,.09.615,0.4,0.4,0,0,0-.28.144c0.09,0.029.18,0.054,0.27,0.079h0a0.229,0.229,0,0,1,.36.105c0.08,0.229.06,0.48,0.17,0.728a0.681,0.681,0,0,1,.32-0.007c0.15,0.091-.08.375-0.26,0.224a0.213,0.213,0,0,1-.1-0.15c-0.1-.011-0.22-0.031-0.19.049a0.79,0.79,0,0,1,.08.409c-0.12-.027-0.4-0.064-0.31-0.286,0.02-.071.16-0.2,0-0.262-0.1-.043-0.26-0.162-0.2-0.285,0.1-.178-0.33.043-0.18-0.281-0.1.016-.21,0.03-0.31,0.041a0.069,0.069,0,0,1,.03.008c0.18,0.216-.12.24-0.27,0.166a0.446,0.446,0,0,1,.05-0.107,0.128,0.128,0,0,1,.09-0.06c-0.14.013-.28,0.024-0.43,0.028h0c-0.06,0-.11.01-0.16,0.01-0.11,0-.21-0.025-0.31-0.03a0.265,0.265,0,0,1,.04.1c0.03,0.117.19,0.337-.05,0.345a0.633,0.633,0,0,0-.01-0.125,0.476,0.476,0,0,0-.11.46,0.945,0.945,0,0,1-.41-0.034,6.38,6.38,0,0,0,3.25,3.108c-0.12-.186-0.08-0.453-0.16-0.567a0.7,0.7,0,0,1-.13-0.359,0.544,0.544,0,0,1-.04-0.463,3.46,3.46,0,0,1-.38-0.392V288.2a2.111,2.111,0,0,1,.63,0,0.935,0.935,0,0,1-.09.333,0.815,0.815,0,0,1,.26-0.3c-0.04-.176-0.49-0.6-0.01-0.467,0.24,0.065.15,0.375,0.01,0.467,0.02,0.038.03,0.075,0.05,0.114a0.731,0.731,0,0,1,.38-0.362,0.939,0.939,0,0,1,.09.448c0.06,0.125-.1.23-0.14,0.129a0.232,0.232,0,0,0-.29-0.126,1.089,1.089,0,0,0,.25.4c0.02,0.015.02,0.034,0.04,0.05-0.02-.105.05-0.188,0.15-0.118a0.4,0.4,0,0,1,.15.28,0.256,0.256,0,0,1-.23-0.052,0.431,0.431,0,0,1-.11.429,0.225,0.225,0,0,1,.07.088,2.382,2.382,0,0,1,.27.722h0.4c0.04-.177-0.16-0.359.03-0.458,0.14-.07.23,0.032,0.17,0.157a0.512,0.512,0,0,1,.15.166c0.05,0.23-.19.248-0.31,0.327a5.914,5.914,0,0,0,1.12.135,12.3,12.3,0,0,1-1.81,1.191,0.148,0.148,0,0,1,.07.068c0.12,0.236-.3.119-0.45,0.115v-0.01a12.524,12.524,0,0,1-2.43.912c-0.01.038-.05,0.047-0.11,0.03a12.2,12.2,0,0,1-1.45.3c0,0.007.01,0.016,0.01,0.022-0.02.064-.06,0.038-0.1-0.014-0.24.031-.49,0.047-0.73,0.063,0,0.021.01,0.04,0.01,0.06h-0.22a0.067,0.067,0,0,0-.01-0.041c-0.22.011-.43,0.056-0.65,0.056a12.878,12.878,0,0,1-1.52-.087c0.5,0.319,1.02.584,1.55,0.855v-0.159c0.15-.013.13,0.115,0.09,0.213a17.74,17.74,0,0,0,8.08,1.974,19.759,19.759,0,0,0,2.49-.17v-0.011a0.582,0.582,0,0,1,.19-0.1,0.12,0.12,0,0,1,.14.061c0.42-.062.81-0.167,1.21-0.254a0.732,0.732,0,0,1,.09-0.208c0.1-.118.2,0.029,0.25,0.139,0.2-.049.42-0.077,0.63-0.132-0.02-.225.09-0.482,0.3-0.435a0.422,0.422,0,0,1,0-.117,0.474,0.474,0,0,1,.33-0.167c0-.186.22-0.111,0.24-0.069,0.12,0.23-.1.242-0.14,0.121a0.22,0.22,0,0,0-.1-0.052,2.017,2.017,0,0,0-.14.564c0.41-.127.83-0.257,1.22-0.413a1.209,1.209,0,0,1-.26-0.3c-0.3-.5.33-0.317,0.53-0.3l-0.12.536c0.07-.029.14-0.068,0.21-0.1a0.262,0.262,0,0,1,.06-0.1,0.077,0.077,0,0,0,0-.067c-0.13-.24.1-0.242,0.19-0.137a0.256,0.256,0,0,1,.03.174,16.8,16.8,0,0,0,3.03-1.691,0.611,0.611,0,0,1-.33-0.218c0.03-.029.12-0.108,0.15-0.133a0.966,0.966,0,0,1,.71-0.136,0.485,0.485,0,0,1-.06.158c0.36-.275.7-0.573,1.03-0.873a0.375,0.375,0,0,1-.52-0.139c-0.05-.086-0.12-0.416.21-0.28,0.11,0.045.56,0.194,0.34,0.392a18.216,18.216,0,0,0,2.67-3.021,0.131,0.131,0,0,1-.07-0.089,1.809,1.809,0,0,0,.37-0.366,19.42,19.42,0,0,0,3.05-8.421,5.476,5.476,0,0,1-.29-0.578c-0.17-.334.17-0.3,0.35-0.251,0.03-.362.05-0.725,0.05-1.084,0-.277,0-0.555-0.01-0.83A12.927,12.927,0,0,0,1458.11,273.673Zm-28.17,7.12c-0.15.142-.47,0.436-0.66,0.255a2.306,2.306,0,0,1,.24-0.423C1429.69,280.566,1430.25,280.513,1429.94,280.793Zm2.33,6.284c-0.28.109-.58-0.025-0.39-0.4a0.62,0.62,0,0,0,.7-0.276A0.562,0.562,0,0,1,1432.27,287.077Zm0.69,0.71a0.7,0.7,0,0,1,.15-0.156c0.33-.267.43,0.305,0.17,0.418C1432.98,288.183,1432.89,287.968,1432.96,287.787Zm0.45,1.605a0.165,0.165,0,0,1-.07.008,0.628,0.628,0,0,1-.02-0.864C1433.29,288.8,1433.72,289.111,1433.41,289.392Zm0.26-2.537,0.11,0.109C1433.73,287.085,1433.55,286.908,1433.67,286.855Zm0.34,0.626a0.319,0.319,0,0,1-.36.133c-0.06-.03.03-0.089,0.05-0.127a1.723,1.723,0,0,0,.11-0.242C1433.89,287.325,1434.11,287.349,1434.01,287.481Zm1.1-4.9c0.12-.119.17,0.027,0.14,0.127a0.276,0.276,0,0,1-.39.073C1434.92,282.729,1435.06,282.62,1435.11,282.579Zm-0.33-.7-0.62.125a3.144,3.144,0,0,1,.22-0.512,0.189,0.189,0,0,1-.04-0.311,0.428,0.428,0,0,1-.04-0.289c0.09-.371.26,0.022,0.1,0.165,0.16,0,.36-0.054.32,0.081C1434.64,281.371,1434.51,281.792,1434.78,281.875Zm-0.22,2.67a0.762,0.762,0,0,1-.24-0.388c0.11-.121.25,0.132,0.32,0.2S1434.67,284.589,1434.56,284.545Zm0.03-3.9a0.207,0.207,0,0,1-.26-0.236,1.289,1.289,0,0,0,.37-0.17A0.337,0.337,0,0,1,1434.59,280.65Zm-0.14-3.267c0.03,0.038.08,0.252,0.01,0.228a0.364,0.364,0,0,1-.17-0.1C1434.13,277.336,1434.41,277.339,1434.45,277.383Zm-0.22,2.557a0.75,0.75,0,0,1-.29.53c-0.07.071-.21,0.008-0.13-0.135a0.73,0.73,0,0,0,.28-0.4C1434.08,279.883,1434.22,279.843,1434.23,279.94Zm-0.06-3.679c-0.36.135-.28-0.171-0.31-0.161C1434.23,275.965,1434.15,276.269,1434.17,276.261Zm-0.23,1.1c0.15-.2.19,0.073,0.11,0.161a0.976,0.976,0,0,1-.21-0.1C1433.69,277.389,1433.88,277.194,1433.94,277.357Zm-0.5-.862a0.165,0.165,0,0,1,.27.154,0.361,0.361,0,0,1-.32-0.047A0.2,0.2,0,0,1,1433.44,276.5Zm-0.08,1.768a0.115,0.115,0,1,1,.16-0.164A0.115,0.115,0,1,1,1433.36,278.263Zm-0.05-2.631c0.16,0.092-.07.375-0.24,0.224C1432.69,275.533,1433.28,275.612,1433.31,275.632Zm-0.33,4.134c-0.13-.006.01-0.284,0.16-0.351C1433.18,279.484,1433.21,279.778,1432.98,279.766Zm-0.66-3.446a0.39,0.39,0,0,1,.07-0.1c0.13-.107.16,0.109,0.09,0.2C1432.37,276.578,1432.25,276.425,1432.32,276.32Zm0.06,4.13c0.19,0.172-.07.228-0.13,0.168C1432.06,280.446,1432.32,280.39,1432.38,280.45Zm-0.32-.167c-0.13-.163.12-0.305,0.22-0.4A0.488,0.488,0,0,1,1432.06,280.283Zm0.35-.4a0.188,0.188,0,0,1,.26.16C1432.72,280.363,1432.46,279.95,1432.41,279.881Zm-0.15-.321c-0.08-.109.02-0.2,0.15-0.157a0.245,0.245,0,0,1,.12.311A0.4,0.4,0,0,1,1432.26,279.56Zm0.12-1.491c-0.05.19-.1,0.367-0.14,0.539a0.2,0.2,0,0,1-.22-0.228,1.074,1.074,0,0,0,.18-0.557C1432.44,277.555,1432.41,277.986,1432.38,278.069Zm-0.31-2.585a0.219,0.219,0,0,1-.07.259,0.141,0.141,0,0,1-.19-0.184A0.233,0.233,0,0,1,1432.07,275.484Zm-0.9-.323c0.07,0.018-.02.152-0.06,0.226a0.759,0.759,0,0,1-.26-0.163C1430.77,275.044,1431.04,275.125,1431.17,275.161Zm-0.23.337c0.01,0.073.42,0.39,0.06,0.349a0.425,0.425,0,0,1-.38-0.189C1430.46,275.353,1430.86,275.5,1430.94,275.5Zm-0.44,3.471c-0.09.119-.16-0.05-0.11-0.129l-0.09-.107C1430.48,278.574,1430.6,278.826,1430.5,278.969Zm0.02-1.554a0.312,0.312,0,0,1,.23-0.205c0.1-.055.58-0.11,0.26,0.278A0.819,0.819,0,0,1,1430.52,277.415Zm0.36,0.882c-0.09,0-.29-0.012-0.16-0.123a0.359,0.359,0,0,1,.43.121C1431.1,278.455,1430.97,278.3,1430.88,278.3Zm0.38-1.394c-0.08.117-.27,0.034-0.14-0.089a0.331,0.331,0,0,0,.1-0.329,0.9,0.9,0,0,1,.65.226c0.16,0.222-.04.115-0.16,0.1a1.1,1.1,0,0,1-.25-0.177c-0.06.143,0.12,0.286-.02,0.343C1431.39,276.855,1431.33,276.8,1431.26,276.9Zm0.26,1.493a0.66,0.66,0,0,1,.1-0.093c0.08-.052.32-0.1,0.26,0.049A0.232,0.232,0,0,1,1431.52,278.4Zm0.32,1.179a0.213,0.213,0,0,1-.22.133v-0.283C1431.73,279.371,1431.93,279.389,1431.84,279.575Zm-0.06-1.732c0.12,0.265-.23.107-0.33,0.127C1431.33,277.7,1431.68,277.863,1431.78,277.843Zm-0.34,3.59c0.02-.141.19-0.143,0.24,0a4.6,4.6,0,0,0,.47-0.173c0.17-.066.08,0.314,0.08,0.445a0.438,0.438,0,0,1-.55-0.272C1431.6,281.432,1431.41,281.711,1431.44,281.433Zm0.11,0.18c0.19-.134.3,0.125,0.11,0.2C1431.43,281.913,1431.43,281.679,1431.55,281.613Zm0.77,2.754a0.228,0.228,0,0,1,.13-0.256c0.11-.067.28,0.076,0.06,0.147C1432.55,284.383,1432.41,284.617,1432.32,284.367Zm0.12-1.067a1.313,1.313,0,0,1-.53-0.091c-0.23.072-.24-0.172-0.09-0.188,0.23-.028.45,0.121,0.66,0.073a0.8,0.8,0,0,0,.19-0.176C1432.77,283.041,1432.57,283.249,1432.44,283.3Zm-0.14-1.447a0.431,0.431,0,0,1,.24-0.24c0.14-.069.32,0.012,0.23,0.187C1432.6,281.675,1432.45,281.976,1432.3,281.853Zm0.3-2.761-0.03-.3c-0.19-.056.02-0.173,0.03-0.173,0.22-.016.64-0.04,0.49,0.319A3.69,3.69,0,0,1,1432.6,279.092Zm0.56,3.015a1.177,1.177,0,0,1,.2-0.486,4.549,4.549,0,0,0-.26-0.606c-0.05.063-.29,0-0.05-0.088,0.04,0.052.26,0.016,0.14-.136-0.06-.076-0.24.047-0.28-0.085a1.272,1.272,0,0,0,.48-0.433c0.25-.216.27,0.058,0.13,0.127a0.37,0.37,0,0,1,.18.413,0.354,0.354,0,0,1,.25.033,0.536,0.536,0,0,0-.1.579,3.034,3.034,0,0,1,.08.652,0.4,0.4,0,0,1-.13.173A3.873,3.873,0,0,1,1433.16,282.107Zm0.09,0.2a0.258,0.258,0,0,0,.28,0,0.342,0.342,0,0,1,.02.205C1433.4,282.559,1433.13,282.557,1433.25,282.3Zm0.45,0.742a0.525,0.525,0,0,1-.18.329c-0.1.027-.31,0.065-0.28-0.036a0.58,0.58,0,0,0,.2-0.234,1.458,1.458,0,0,0-.11-0.159c-0.05-.1.02-0.257,0.16-0.107C1433.68,282.642,1433.76,282.9,1433.7,283.045Zm0.08-.579a0.326,0.326,0,0,0,.34-0.171,0.232,0.232,0,0,1,.22-0.154,0.969,0.969,0,0,1-.19.408,0.319,0.319,0,0,1,.41.333A2.172,2.172,0,0,1,1433.78,282.466Zm0.23,1.54,0.25,0.883a0.257,0.257,0,0,1-.26-0.31A3.1,3.1,0,0,0,1434.01,284.006Zm-0.4,1.576c-0.24-.224.17-0.117,0.22-0.121-0.1.141,0.19,0.294-.03,0.5A0.476,0.476,0,0,0,1433.61,285.582Zm0.64,0.962a0.383,0.383,0,0,0,.32-0.02c0.14,0.261-.31.361-0.09,0.587-0.17-.086-0.29.031-0.17,0.269a0.526,0.526,0,0,1-.21-0.462c0.07,0,.27.054,0.23-0.041a0.594,0.594,0,0,0-.31-0.232,1.123,1.123,0,0,0-.18-0.5,0.882,0.882,0,0,1,.2-0.236c-0.05-.049.01-0.285,0.09-0.047-0.13.1,0.07,0.154,0.16,0.116,0.11-.043.31-0.1,0.33,0.034,0.01,0.147.08,0.343-.07,0.389-0.2.055-.26-0.218-0.39-0.4A0.57,0.57,0,0,0,1434.25,286.544Zm0.35-.71h-0.25v-0.517a1.63,1.63,0,0,0-.24.277,0.2,0.2,0,0,1-.15-0.272,1.1,1.1,0,0,1,.22-0.232,0.146,0.146,0,0,1,.21.162C1434.81,285.09,1434.57,285.675,1434.6,285.834Zm0.03-.785,0.09-.4a0.611,0.611,0,0,0,.51-0.241,0.275,0.275,0,0,1,.01.25A0.675,0.675,0,0,1,1434.63,285.049Zm0.69,0.271c-0.03.03-.35,0.225-0.27,0a0.542,0.542,0,0,1,.19-0.187C1435.34,285.083,1435.49,285.152,1435.32,285.32Zm-0.29,2.748c-0.11-.228.19-0.079,0.19-0.077,0.19,0.113.04,0.283-.05,0.343A0.5,0.5,0,0,1,1435.03,288.068Zm0.03,1.322a0.567,0.567,0,0,1,.19-0.349l0.25,0.088A0.339,0.339,0,0,1,1435.06,289.39Zm0.12-10.455a0.469,0.469,0,0,1,.15-0.269c0.32-.279.35,0.187,0.34,0.157C1435.83,279.439,1435.34,279.2,1435.18,278.935Zm5.72,3.61c0.1,0.287-.45.169-0.52-0.063C1440.18,281.735,1440.85,282.434,1440.9,282.545Zm-0.03,9.694a0.28,0.28,0,0,1-.32-0.127c-0.06-.083.01-0.248,0.13-0.1C1440.86,291.961,1441,292.11,1440.87,292.239ZM1439.28,291c0.09,0.1.47,0.011,0.4,0.267a0.784,0.784,0,0,1-.57-0.02C1438.81,291.137,1439.12,290.827,1439.28,291Zm-3.06-10.839c0.13,0.026.56-.07,0.5,0.085a0.435,0.435,0,0,1-.58.262C1436.02,280.425,1435.77,280.069,1436.22,280.156Zm-0.36,9.311a2,2,0,0,1,.48-0.509c-0.09-.073-0.07-0.252.08-0.226a0.237,0.237,0,0,1-.08.226l0.06,0.193A0.852,0.852,0,0,1,1435.86,289.467Zm-0.15,2.262c0.17-.1.19,0.1,0.14,0.221h-0.37A0.65,0.65,0,0,1,1435.71,291.729Zm-1.09.625c0.2,0.014.01,0.214-.06,0.117a0.272,0.272,0,0,1-.1-0.282C1434.56,291.946,1434.61,292.281,1434.62,292.354Zm-2.31,2.691c-0.13.033-.09-0.445,0.21-0.492,0.14-.023.49-0.147,0.44,0.07A0.749,0.749,0,0,1,1432.31,295.045Zm0.47-.847v-0.131l0.56-.093C1433.33,294.307,1432.97,294.219,1432.78,294.2Zm0.46-1.693a0.542,0.542,0,0,1,.08-0.084c0.07-.033.21-0.138,0.2-0.011C1433.51,292.5,1433.32,292.655,1433.24,292.505Zm1.54,1.182v0.1a0.581,0.581,0,0,1-.53-0.568c-0.08-.292.13-0.25,0.33-0.211-0.04-.061.09-0.174,0.13-0.071l-0.05.079a0.762,0.762,0,0,0,.15.014,0.114,0.114,0,0,1,.05-0.065,0.247,0.247,0,0,1-.05.235l-0.02.325a0.315,0.315,0,0,0,.09.007C1434.95,293.673,1434.88,293.694,1434.78,293.687Zm0.4-1.032a0.174,0.174,0,0,1-.03.088,0.539,0.539,0,0,0-.11-0.1c-0.07-.019-0.29.046-0.24-0.071a1.081,1.081,0,0,1,.38-0.081v0.084c0.01-.172.05-0.434-0.13-0.339-0.2.106-.24,0.063-0.19-0.133,0.08-.306.43-0.129,0.59-0.145a0.779,0.779,0,0,1-.04.475v0.149a0.327,0.327,0,0,1-.05-0.049A0.35,0.35,0,0,1,1435.18,292.655Zm0.94,1.685v0c0.03,0.158.01,0.305-.29,0.318a0.42,0.42,0,0,0,.04-0.142,0.269,0.269,0,0,1-.08,0,0.321,0.321,0,0,1,.09-0.133c-0.03-.167-0.19-0.241-0.42-0.125,0.05-.352.38-0.262,0.56-0.246,0.01,0.039.03,0.094,0.05,0.151,0.01-.008.01-0.011,0.02-0.02C1436.21,293.982,1436.33,294.354,1436.12,294.34Zm0.58-2.446c0.03,0.04.08,0.254,0.01,0.23a0.34,0.34,0,0,1-.17-0.1C1436.38,291.848,1436.66,291.852,1436.7,291.894Zm0.07,1.782a0.17,0.17,0,0,1-.19.23,0.447,0.447,0,0,1,.07-0.388,0.2,0.2,0,0,1-.13-0.286c0.07-.073.3,0,0.26,0.123-0.02.064-.11,0.1-0.13,0.163A0.473,0.473,0,0,1,1436.77,293.676Zm-0.09-3.777a0.909,0.909,0,0,0,.13.3v0.1a0.661,0.661,0,0,1-.59-0.24c-0.09-.093.02-0.2,0.15-0.131,0.01-.021.02-0.046,0.03-0.071a0.316,0.316,0,0,1-.19-0.472,0.513,0.513,0,0,0,.85-0.014A0.376,0.376,0,0,1,1436.68,289.9Zm0.66,4.614a0.332,0.332,0,0,1-.07-0.446c0.2-.25.17,0.131,0.1,0.226C1437.51,294.35,1437.56,294.66,1437.34,294.513Zm0.31,0.962c-0.17-.171-0.44-0.513-0.24-0.732a2.673,2.673,0,0,0,.31.316A0.91,0.91,0,0,1,1437.65,295.475Zm-0.34-1.8c-0.09.434-.14-0.15-0.11-0.228a0.522,0.522,0,0,1,.16-0.208c0.15-.053.29,0.088,0.46,0.048a0.383,0.383,0,0,0,.11.337C1437.7,293.641,1437.38,293.363,1437.31,293.672Zm0.41-1.278c0.06,0.057-.11.226-0.16,0.166C1437.43,292.421,1437.58,292.259,1437.72,292.394Zm0.13,0.2c-0.1-.109.08-0.177,0.14-0.262,0.04-.061.25-0.107,0.21-0.035C1438.12,292.443,1438.02,292.77,1437.85,292.59Zm0.21-.825a0.194,0.194,0,0,1-.24-0.21l0.44-.081C1438.34,291.654,1438.22,291.747,1438.06,291.765Zm-0.02-.458c-0.12-.267.23-0.109,0.33-0.128C1438.49,291.444,1438.14,291.286,1438.04,291.307Zm-0.44-.594c0.12-.211.13-0.389-0.02-0.45-0.06-.026-0.22-0.111-0.11-0.206,0.13-.118.21,0.115,0.36,0.154,0,0.075-.06.28,0.05,0.25a1.034,1.034,0,0,1,.31-0.169c-0.1.3,0.34,0.294,0.24,0.678A0.593,0.593,0,0,0,1437.6,290.713Zm0.81-2.657a1.406,1.406,0,0,1,.43-0.335c0.24-.178.12,0.267,0.11,0.376A1.2,1.2,0,0,1,1438.41,288.056Zm0.78,7.05a0.724,0.724,0,0,0-.12-0.108c-0.07-.017-0.26.056-0.26-0.075C1438.9,294.882,1439.32,294.842,1439.19,295.106Zm0.54,0.357c-0.14-.137.02-0.3,0.16-0.167C1439.95,295.353,1439.78,295.52,1439.73,295.463Zm0.92-1.2c-0.07.077-.29,0.04-0.19-0.135a0.493,0.493,0,0,1,.07-0.1C1440.78,293.811,1440.66,294.241,1440.65,294.261Zm0.3-.748c-0.19.142-.38,0.336-0.53,0.025a0.308,0.308,0,0,1-.21.095c-0.19-.018,0-0.172.12-0.186a0.98,0.98,0,0,1-.44.09,0.107,0.107,0,0,1-.12.052l-0.11.177c0.08,0.131.06,0.194,0.01,0.233a0.252,0.252,0,0,1,.17.139,0.981,0.981,0,0,1-.5-0.071,0.1,0.1,0,0,1-.03-0.146,0.245,0.245,0,0,1-.06-0.044c-0.19.018-.89,0.11-0.45-0.3a2.882,2.882,0,0,1,.89-0.064,0.1,0.1,0,0,1,.13-0.14v-0.189c-0.1-.139-0.78-0.645-0.15-0.722l0.15,0.722a0.7,0.7,0,0,0,.79-0.274,2.093,2.093,0,0,1,.67.151,0.37,0.37,0,0,1,.08.313,0.531,0.531,0,0,1,.1.061,0.078,0.078,0,0,1-.11.062C1441.29,293.642,1441.16,293.712,1440.95,293.513Zm0.28,1.261c0.09-.051.31-0.089,0.28,0.092C1441.49,295.013,1441.29,294.85,1441.23,294.774Zm0.86-.388c-0.34.079-.16-0.238,0.09-0.3A0.323,0.323,0,0,1,1442.09,294.386Zm4.09-20.449c0.05-.113.22-0.19,0.09-0.37-0.05-.075.2-0.06,0.22-0.036-0.15.192,0.19,0.425,0,.494C1446.38,274.066,1446.09,274.15,1446.18,273.937Zm-0.41,2.962-0.22-.19c0.01-.03.35-0.569,0.6-0.208l-0.28.148c0.25-.144.32,0.318,0.55,0.149a0.946,0.946,0,0,0-.08.323h-0.41C1445.99,276.97,1445.93,276.814,1445.77,276.9Zm-0.67-.493-0.08-.565c-0.15.067-.27,0-0.25-0.169,0.01-.105-0.15-0.163-0.14-0.278h0.24c0.21,0.443.48,0.5,0.67,0.958C1445.58,276.443,1445.25,276.411,1445.1,276.406Zm0.23,1.2c0.02,0.073-.27.111-0.33-0.03-0.04-.1-0.3-0.2-0.16-0.305A0.783,0.783,0,0,1,1445.33,277.609Zm-0.32-2.167a2.976,2.976,0,0,0,.04-0.408,0.519,0.519,0,0,1,.24-0.1,2.761,2.761,0,0,0,.43-0.263,1.228,1.228,0,0,1-.23.779,0.182,0.182,0,0,0,.28-0.165,0.208,0.208,0,0,1,.24-0.239,2.15,2.15,0,0,0-.06.737c0.05,0.145-.13.186-0.3,0.133A0.812,0.812,0,0,0,1445.01,275.442Zm0.97-1.138a1.589,1.589,0,0,1-.3-0.1c-0.07-.012-0.07-0.232.1-0.107C1445.87,274.045,1446.19,274.314,1445.98,274.3Zm0.12,0.341c0.14-.049.34-0.024,0.21,0.093a0.343,0.343,0,0,1-.35-0.049C1445.75,274.566,1446.08,274.5,1446.1,274.645Zm0.24,1.529c-0.17-.04,0-0.218.08-0.121a0.317,0.317,0,0,1,.11.281A0.434,0.434,0,0,0,1446.34,276.174Zm-0.4-4.179c0.06,0.059-.11.226-0.17,0.168C1445.64,272.024,1445.8,271.862,1445.94,272Zm-0.35.319a0.638,0.638,0,0,1,.55.2,0.934,0.934,0,0,1-.67-0.077A0.326,0.326,0,0,1,1445.59,272.314Zm-0.87.587c0-.139.09-0.369,0.22-0.308,0.11,0.05.31,0.532,0.39,0.133a0.14,0.14,0,0,1,.08-0.232,0.255,0.255,0,0,1-.08.232v0.256l0.31-.192v0.331h-0.46a0.241,0.241,0,0,0,.32.141c0.05,0.19-.28.3-0.1,0.469a0.848,0.848,0,0,1-.31.014,0.246,0.246,0,0,0,.07-0.279c-0.09-.086-0.2.017-0.25,0.071-0.26.24-.1-0.22-0.14-0.232-0.21-.063.01-0.172,0.03-0.26A1.081,1.081,0,0,1,1444.72,272.9Zm0.23,1.389a0.512,0.512,0,0,1-.4.026,1.864,1.864,0,0,1,.08-0.184C1444.72,274,1444.96,274.156,1444.95,274.29Zm-0.39-.541v0.073a0.671,0.671,0,0,1-.23,0C1444.34,273.719,1444.52,273.59,1444.56,273.749Zm-0.57.527c0.13-.118.15,0.185,0.02,0.207-0.07.012-.25,0.02-0.18-0.109A0.386,0.386,0,0,1,1443.99,274.276Zm-0.24.649,0.11,0.067a2.352,2.352,0,0,0,.63-0.085,0.833,0.833,0,0,0-.02.537c0.16,0.1.02,0.228-.05,0.254-0.31.127-.02-0.2-0.21-0.171a2.073,2.073,0,0,1-.44.018,1.9,1.9,0,0,1,.09-0.361c0.03-.051.24-0.21,0-0.192C1443.81,275.248,1443.64,275.085,1443.75,274.925Zm-0.15-1.084c0.22,0.071-.02.192-0.02,0.009C1443.57,273.858,1443.61,273.843,1443.6,273.841Zm-0.08,1.565c0.26,0.115-.24.4,0.07,0.357a0.969,0.969,0,0,1,.6.006,0.681,0.681,0,0,1-.82.163,0.414,0.414,0,0,1-.09-0.351C1443.29,275.505,1443.32,275.315,1443.52,275.406Zm-0.22,16.12c-0.16-.032.06-0.207,0.15-0.276C1443.51,291.315,1443.46,291.557,1443.3,291.526Zm-0.01.816a0.48,0.48,0,0,1-.3-0.145c-0.16-.291.29-0.13,0.39-0.144C1443.37,292.13,1443.47,292.408,1443.29,292.342Zm0.02-15.225a0.622,0.622,0,0,1-.37.222,0.2,0.2,0,0,1-.17-0.224,5.961,5.961,0,0,0,.08-0.628,1.973,1.973,0,0,0,.49.246c-0.08.174,0.04,0.293,0.19,0.214C1443.66,277.191,1443.38,277.1,1443.31,277.117Zm-0.11-.779c0.1-.119.28,0.034,0.28,0.137C1443.39,276.467,1443,276.6,1443.2,276.338Zm-0.49-.648a0.322,0.322,0,0,1,.23.412,0.513,0.513,0,0,1-.46.072C1442.57,276.013,1442.44,275.688,1442.71,275.69Zm-0.24.882a0.273,0.273,0,0,1,.11-0.305,1.877,1.877,0,0,0,.21.305h-0.32Zm0.08,15.639c-0.15-.484.42-0.108,0.43,0.158A0.371,0.371,0,0,1,1442.55,292.211Zm0.39,1.808c-0.07-.125.07-0.176,0.15-0.224a0.286,0.286,0,0,1,.24-0.041C1443.25,293.942,1443.07,294.265,1442.94,294.019Zm0.57-.739a1.306,1.306,0,0,1-.29-0.256c0.05-.125.32-0.01,0.38,0.1C1443.63,293.167,1443.67,293.351,1443.51,293.28Zm0.42-16.682a0.187,0.187,0,0,0-.15-0.224c-0.08-.026-0.25.01-0.24-0.143a1.006,1.006,0,0,1,.48-0.024c0.12,0.141.12,0.292,0.21,0.361a0.354,0.354,0,0,1-.48.2C1443.62,276.661,1443.76,276.513,1443.93,276.6Zm-0.04,14.88c-0.08-.226.19-0.1,0.25-0.052,0.08,0.078.29,0.218,0.12,0.29a0.359,0.359,0,0,0-.32.01A1.7,1.7,0,0,0,1443.89,291.478Zm0.87,0.916a0.777,0.777,0,0,1-.49-0.452c-0.1-.006-0.29.057-0.26-0.062,0.05-.19.23-0.014,0.26,0.062a0.152,0.152,0,0,1,.11-0.058,1.018,1.018,0,0,1,.46.383C1444.88,292.293,1444.9,292.5,1444.76,292.394Zm0.12,1.2c0-.079-0.06-0.266.06-0.24a0.213,0.213,0,0,1,.16.24h-0.22Zm0.03-1.971c-0.1.016-.23,0.167-0.26,0.007a1.035,1.035,0,0,1,.07-0.191c0.01-.059-0.02-0.21.04-0.194,0.21,0.057.38,0.426,0.69,0.176C1445.44,291.726,1445.07,291.6,1444.91,291.626Zm1.54-.608c-0.57-.134-0.25.542-0.28,0.736-0.25.091-.6-0.016-0.5-0.219a0.833,0.833,0,0,0,.16-0.619c-0.14.067-.41,0.5-0.51,0.192a0.3,0.3,0,0,1,.23-0.323,4.418,4.418,0,0,1,1.03-.089C1446.85,290.717,1446.58,291.047,1446.45,291.018Zm0.16-.674c-0.15-.115.11-0.5,0.3-0.254C1447.18,290.423,1446.69,290.4,1446.61,290.344Zm0.21-17.854c-0.06,0-.23-0.158-0.21,0a2.13,2.13,0,0,1,.12.652,1.212,1.212,0,0,1-.27.286c-0.03-.319-0.23.1-0.18-0.168a1.615,1.615,0,0,1,.31-1.059c-0.07-.073.03-0.3,0.14-0.1a0.262,0.262,0,0,0,.29.073A0.219,0.219,0,0,1,1446.82,272.49Zm0.16-.652c-0.06-.147.03-0.172,0.15-0.141,0.04-.2.22-0.076,0.22,0.034a0.109,0.109,0,0,1-.02.058,0.439,0.439,0,0,1,.17.167c0.03,0.075.1,0.459-.07,0.391A1.229,1.229,0,0,1,1446.98,271.838Zm0.51,19.274c-0.07.333-.35,0.211-0.23-0.054a0.668,0.668,0,0,1,.15-0.176C1447.64,290.7,1448.01,291.166,1447.49,291.112Zm2.84-12.342a0.3,0.3,0,0,1-.47.275l-0.03-.02C1449.48,278.552,1450.19,278.785,1450.33,278.77Zm-1.75-3.123c0.39-.327.15,0.372,0.18,0.523C1448.58,276.109,1448.4,275.8,1448.58,275.647Zm-0.6,5.745a0.239,0.239,0,0,1-.08-0.251c0.03-.255.21-0.276,0.31-0.025C1448.28,281.3,1448.19,281.568,1447.98,281.392Zm0.61,9.153c-0.55.119-.33-0.549-0.31-0.76a0.283,0.283,0,0,1,.19-0.259,0.8,0.8,0,0,1,.6-0.035c0.11,0.057.14,0.459-.16,0.405C1448.52,289.824,1448.44,290.186,1448.59,290.545Zm0.58,0.366c-0.23.434-.19-0.151,0.03-0.1-0.18-.111-0.37-0.2-0.37-0.219-0.05-.147-0.11-0.484.17-0.344a0.7,0.7,0,0,1,.46.265C1449.52,290.67,1449.55,291.13,1449.17,290.911Zm0.49-3.49c-0.35,0-.52.682-0.85,0.273a0.953,0.953,0,0,0,.24.8c0.25,0.4-.05.215-0.31,0.212-0.44-.007-0.5-0.635-0.46-1.033a2.386,2.386,0,0,1,.53.018c0.1-.273.26-0.721,0.67-0.56C1449.57,287.174,1450.22,287.425,1449.66,287.421Zm0.94,1.611c-0.09.154-.1,0.638-0.46,0.488-0.31-.134-0.16-0.463.1-0.528C1450.24,288.809,1450.81,288.662,1450.6,289.032Zm0.75-6.689a1.117,1.117,0,0,1-.3-0.216c-0.44-.265.16-0.308,0.28-0.236C1451.48,281.977,1451.68,282.454,1451.35,282.343Zm0.52,5.286c-0.27.108-.44-0.348-0.35-0.574a1.544,1.544,0,0,0,.18-0.455c0.02-.789.39,0.1,0.24,0.14C1451.94,287.08,1452.32,287.45,1451.87,287.629Zm2.28-5.5c-0.22-.154-0.37-0.387-0.6-0.535,0.04-.043.14-0.111,0.17-0.147a0.245,0.245,0,1,1,.42.251C1454.26,281.844,1454.32,282.242,1454.15,282.124Zm0.22-2.109c0.01,0-.18,0-0.23,0,0.01-.118-0.13-0.52.13-0.4C1454.43,279.681,1454.91,279.828,1454.37,280.015Zm-19.59,10.194c-0.01-.067-0.03-0.13-0.04-0.2a1.191,1.191,0,0,1-.43.044C1434.46,290.12,1434.63,290.156,1434.78,290.209Zm7.32,5.153c0.05-.012.09-0.03,0.13-0.043-0.03,0-.06.009-0.09,0.011A0.159,0.159,0,0,0,1442.1,295.362Zm-12.25-18.8c-0.18.345,0.23,0.228,0.35,0.232l-0.1-.305A0.215,0.215,0,0,1,1429.85,276.566Zm-0.02-3.919c0.06,0.143.23,0.278,0.32,0.165a0.563,0.563,0,0,0,.04-0.043,1.817,1.817,0,0,0-.13-0.138A2.042,2.042,0,0,1,1429.83,272.647Zm3.27,13.424c-0.08.016-.16,0.036-0.24,0.049C1432.95,286.155,1433.08,286.154,1433.1,286.071Zm-2.85-6.656a0.4,0.4,0,0,1-.05.026c0.05,0.054.11,0.1,0.16,0.149C1430.39,279.465,1430.39,279.337,1430.25,279.415Zm-1.59-5.759a6.554,6.554,0,0,0-.16,1.411v0.041a0.838,0.838,0,0,1,.24-0.057,0.206,0.206,0,0,1,.12-0.149,0.09,0.09,0,0,1-.02-0.134,0.284,0.284,0,0,0,.02-0.375,0.216,0.216,0,0,1-.25-0.055c0.13-.058.01-0.305,0.14-0.27,0.07,0.018.13,0.224,0.23,0.109,0.06-.063.18-0.164,0.1-0.2A2.737,2.737,0,0,1,1428.66,273.656Zm0.01,1.076-0.11.11C1428.44,274.788,1428.61,274.612,1428.67,274.732Zm1.31-.751c0.08-.085.43,0.044,0.34-0.25a0.758,0.758,0,0,0-.39-0.392,0.661,0.661,0,0,1-.03.192,0.272,0.272,0,0,1,.08.2C1429.99,273.791,1429.82,273.93,1429.98,273.981Zm-0.82,1.263c0.06-.123-0.06-0.192-0.18-0.258-0.08.028-.16,0.043-0.24,0.065a0.2,0.2,0,0,0,.04.06C1428.9,275.142,1429.07,275.213,1429.16,275.244Zm-0.57.227h-0.07c0,0.033.02,0.062,0.02,0.095,0.02-.029.04-0.061,0.06-0.088C1428.59,275.476,1428.6,275.473,1428.59,275.471Zm16.51-2.281a0.2,0.2,0,0,0-.19-0.232,0.267,0.267,0,0,0-.11.087A0.252,0.252,0,0,0,1445.1,273.19Z" transform="translate(-1427.19 -270.656)"/>
</svg>
