<svg xmlns="http://www.w3.org/2000/svg" width="31.78" height="31.656" viewBox="0 0 31.78 31.656">
  <defs>
    <style>
      .cls-1 {
        fill: #ada79b;
        fill-rule: evenodd;
      }
    </style>
  </defs>
  <path id="insta-gie" class="cls-1" d="M1425.19,360.984c-0.02-.024-0.04-0.046-0.06-0.068A0.312,0.312,0,0,0,1425.19,360.984Zm0.34-.68a0.721,0.721,0,0,0-.01.3h0.22C1425.82,360.44,1425.66,360.366,1425.53,360.3Zm-0.11.471a0.235,0.235,0,0,0,.01.022C1425.43,360.788,1425.42,360.783,1425.42,360.775Zm2.62-2.667-0.21.1a0.07,0.07,0,0,0,.01.008C1427.95,358.278,1427.99,358.205,1428.04,358.108Zm19.52,4.372a1.9,1.9,0,1,0,1.91,1.9A1.9,1.9,0,0,0,1447.56,362.48Zm-1.76,2.362a0.1,0.1,0,0,1,.1-0.095c0.11,0,.3-0.133.31,0.095h-0.41Zm2.14,0.018c-0.04.067,0.04,0.255-.09,0.229V364.6C1448.02,364.586,1447.99,364.765,1447.94,364.86Zm0.55-.882c0-.079-0.06-0.266.06-0.238a0.21,0.21,0,0,1,.16.238h-0.22Zm-22.03-4.634V359.12a3.058,3.058,0,0,0-.23.206A0.328,0.328,0,0,0,1426.46,359.344Zm8.46,20.432a0.107,0.107,0,0,0-.14-0.088C1434.83,379.716,1434.87,379.749,1434.92,379.776Zm-10.48-18.187c0.01,0,.01.01,0.02,0.013a0.051,0.051,0,0,1,.02-0.029A0.1,0.1,0,0,0,1424.44,361.589Zm22.64,9.668a0.175,0.175,0,0,0-.01-0.071,0.555,0.555,0,0,1-.48-0.1c0.05-.132.24-0.272,0.31-0.459a8.13,8.13,0,0,0-15.21-1.193,0.056,0.056,0,0,0,.02.01c0.01,0.01-.01.029-0.02,0.044a0.119,0.119,0,0,0,.03-0.03c0.31-.412.52,0.161,0.73,0.342a0.689,0.689,0,0,1-.85-0.2,6.993,6.993,0,0,0-.36,1.1,0.864,0.864,0,0,0,.47.078c-0.13.137-.22,0.567-0.39,0.338a0.945,0.945,0,0,0-.17-0.147,8.171,8.171,0,0,0-.23,1.863c0,0.049.01,0.094,0.01,0.143,0.06,0.063.12,0.16,0.17,0.207a0.183,0.183,0,0,1-.15.024,8.07,8.07,0,0,0,.49,2.471,0.135,0.135,0,0,0,.04,0c0.15-.065.07,0.154,0.07,0.205,0,0-.01,0-0.02,0a8,8,0,0,0,1.23,2.043c0.11-.034.22-0.038,0.2,0.077a0.161,0.161,0,0,1-.08.088,7.963,7.963,0,0,0,1.19,1.123c-0.01-.034-0.03-0.067-0.04-0.1-0.06-.224.18-0.093,0.31-0.1l-0.01.376c0.13,0.094.26,0.185,0.4,0.273a0.255,0.255,0,0,1,.29-0.1,0.348,0.348,0,0,1,.03.312,7.92,7.92,0,0,0,.79.369,0.209,0.209,0,0,1-.04-0.281c0.05,0.048.14,0.15,0.17,0.174a0.3,0.3,0,0,1-.01.157,7.93,7.93,0,0,0,.96.331V380.6a0.373,0.373,0,0,1,.11-0.057c0.07-.018.1,0.049,0.1,0.124,0.25,0.061.48,0.142,0.74,0.18a1.4,1.4,0,0,1-.13-0.325c-0.11-.405.33-0.169,0.57-0.188v0.03a0.077,0.077,0,0,1,.02,0c-0.03-.13.04-0.312,0.17-0.281,0.16,0.033-.06.229-0.17,0.281a0.58,0.58,0,0,0,.05.251c0.05,0.049-.02.089-0.09,0.139l-0.01.133c0.27,0.026.53,0.08,0.8,0.08a8.066,8.066,0,0,0,3.9-1.033c0.01-.08.07-0.144,0.26-0.168l0.01,0.024a8.1,8.1,0,0,0,3.99-6.956,7.782,7.782,0,0,0-.15-1.457A0.152,0.152,0,0,1,1447.08,371.257Zm-3.34-4.3a0.49,0.49,0,0,1,.43.155h-0.58A0.444,0.444,0,0,1,1443.74,366.959Zm-2.28.408c0.02,0.042.06,0.254-.04,0.216a0.629,0.629,0,0,1-.25-0.281C1441.09,367.129,1441.41,367.246,1441.46,367.367Zm-0.88-2.346c0.03,0.04.08,0.254,0.01,0.23a0.347,0.347,0,0,1-.17-0.1C1440.25,364.976,1440.54,364.978,1440.58,365.021Zm-1.74.957c0.32-.279.35,0.187,0.34,0.157,0.16,0.616-.34.378-0.5,0.112A0.451,0.451,0,0,1,1438.84,365.978Zm-2.33.072c0.19,0.172-.07.228-0.13,0.169C1436.19,366.046,1436.45,365.991,1436.51,366.05Zm-2.19.593a0.193,0.193,0,0,1,.14.264,0.263,0.263,0,0,1-.14.138v-0.4Zm-0.07.948c0.06-.04.2-0.146,0.21,0a0.19,0.19,0,0,1-.29.124C1434.13,367.685,1434.2,367.625,1434.25,367.591Zm-0.89,1.93c-0.2-.178.12-0.135,0.14-0.124C1433.59,369.448,1433.46,369.6,1433.36,369.521Zm-0.43-1.586c0.19-.059.75-0.111,0.44,0.169-0.16.141-.48,0.435-0.67,0.254A3.512,3.512,0,0,1,1432.93,367.935Zm-0.35,4.665a1.756,1.756,0,0,0,.27-0.1c0.1-.037.04,0.173,0.04,0.246a0.255,0.255,0,0,1-.31-0.151c-0.04,0-.15.154-0.13,0A0.065,0.065,0,0,1,1432.58,372.6Zm-1.34-.212a1.64,1.64,0,0,1,.13-0.234c0.1-.032.42-0.061,0.24,0.094C1431.53,372.326,1431.35,372.488,1431.24,372.388Zm0.41,1.958c-0.25-.177.19-0.4-0.06-0.739-0.11-.153.06-0.016,0.14,0.044-0.01-.177.08-0.332,0.35-0.237,0.57,0.194.3,1.226,1.05,0.889,0.28-.118.13,0.278,0.13,0.371a0.79,0.79,0,0,1-.97-0.387,3.2,3.2,0,0,1,0-.439h-0.5A0.409,0.409,0,0,1,1431.65,374.346Zm0.39,0.431a0.291,0.291,0,0,1-.05-0.223C1432.07,374.142,1432.17,374.7,1432.04,374.777Zm0.15,0.854a0.73,0.73,0,0,0,.12-0.211,0.221,0.221,0,0,1,.2-0.032,0.239,0.239,0,0,0-.07.266A0.424,0.424,0,0,1,1432.19,375.631Zm0.19,0.772c-0.23-.187.22-0.4,0.39-0.577C1433.02,376.025,1432.62,376.308,1432.38,376.4Zm0.54-.685c-0.16.06-.33-0.014-0.22-0.223a0.35,0.35,0,0,0,.39-0.152A0.307,0.307,0,0,1,1432.92,375.718Zm0.66,2.057a0.2,0.2,0,0,0-.26.152,0.35,0.35,0,0,1-.18.319,2.331,2.331,0,0,0-.12-0.554c0.01-.183.16,0.116,0.28,0.1,0.01-.062.03-0.2,0.04-0.25,0.01-.078.03-0.313,0.04-0.429C1433.78,377.032,1433.57,377.569,1433.58,377.775Zm-0.28-1.665a0.6,0.6,0,0,1,.09-0.086c0.18-.148.24,0.168,0.09,0.231C1433.31,376.329,1433.26,376.21,1433.3,376.11Zm0.13-4.21c-0.44-.321.36-0.727-0.09-1.338-0.24-.33.26,0.1,0.31,0.132C1433.68,371.065,1433.91,371.665,1433.43,371.9Zm0.47,3.611c0.08,0.05-.05.207-0.14,0.124C1433.55,375.456,1433.88,375.5,1433.9,375.511Zm0.32,1.55c-0.13.1,0.06,0.173,0.11,0.24-0.07.191-.2-0.041-0.29,0.071a1.433,1.433,0,0,1-.1-0.333,0.518,0.518,0,0,1,.14-0.688c-0.02-.1-0.27-0.329,0-0.258,0.13,0.036.08,0.207,0,.258a1.113,1.113,0,0,0,.2.332A0.24,0.24,0,0,1,1434.22,377.061Zm0.33,1.738c-0.01-.084.05-0.291-0.07-0.231s-0.14.035-.11-0.073c0.05-.169.24-0.072,0.33-0.08A0.294,0.294,0,0,1,1434.55,378.8Zm0.72-.09a1.311,1.311,0,0,1-.38-0.362c-0.16-.31.32-0.168,0.34,0.088,0.22-.144.63-0.21,0.58,0.073A0.387,0.387,0,0,1,1435.27,378.709Zm-0.14-1.715a0.283,0.283,0,0,0,.47-0.008c0.1,0.158-.1.327-0.27,0.3S1435.05,377.167,1435.13,376.994Zm2.66,2.278c-0.11.081-.22,0.2-0.31,0a1.283,1.283,0,0,0-.33,0l-0.09.14c0.13,0.219-.16.169-0.22,0.061-0.11.01-.51,0.061-0.26-0.164a2.32,2.32,0,0,1,.57-0.037l0.01-.18c-0.07-.077-0.44-0.357-0.09-0.4l0.09,0.4a0.377,0.377,0,0,0,.43-0.152,1.183,1.183,0,0,1,.38.084C1438.09,379.132,1438.01,379.488,1437.79,379.272Zm0.89,0.684c-0.01-.152.09-0.527-0.13-0.418-0.2.106-.24,0.063-0.19-0.132,0.08-.306.43-0.129,0.6-0.145A0.545,0.545,0,0,1,1438.68,379.956Zm0.01-1.4c-0.09-.267.23-0.059,0.24,0.087A0.207,0.207,0,0,1,1438.69,378.553Zm0.67,1.5a0.591,0.591,0,0,1-.22-0.212c-0.16-.277.19-0.176,0.3-0.166Zm2.14-1.106a0.5,0.5,0,0,1-.34-0.158c0.02-.016.07-0.06,0.09-0.073a0.526,0.526,0,0,1,.39-0.076A0.674,0.674,0,0,1,1441.5,378.952Zm-0.17-1.036a0.4,0.4,0,0,1,.08-0.1c0.13-.1.34,0.157,0.05,0.127C1441.42,378.13,1441.26,378.063,1441.33,377.916Zm-0.34-.173c0.04,0.052-.06.164-0.12,0.152-0.32-.075-0.14.3-0.15,0.406-0.14.05-.34-0.009-0.28-0.121a0.577,0.577,0,0,0,.08-0.291l-0.09.029c-0.06.059-.13,0.105-0.17,0.051a5.145,5.145,0,0,1-3.28-.294,2.242,2.242,0,0,0-.03.236c0.08,0.012.15,0.027,0.12,0.118a0.137,0.137,0,0,1-.13.022c0,0.015-.01.039-0.01,0.052a0.363,0.363,0,0,0-.47.276,0.632,0.632,0,0,1-.33.577,3.885,3.885,0,0,0-.22-1c0.03-.33.29,0.209,0.51,0.176,0.01-.112.06-0.368,0.07-0.452,0.01-.052.02-0.147,0.03-0.251a5.323,5.323,0,0,1-2.28-2.566,0.541,0.541,0,0,0-.01.172h-0.15v-0.319a0.139,0.139,0,0,1,.09-0.012,5.053,5.053,0,0,1,1.28-5.7,0.412,0.412,0,0,1-.32-0.257c-0.08,0-.28.279-0.24,0,0.02-.141.19-0.143,0.24,0a4.689,4.689,0,0,0,.48-0.173c0.11-.041.11,0.088,0.1,0.223a5.25,5.25,0,0,1,3.37-1.24c0.14,0,.27.03,0.41,0.041-0.03-.1.01-0.172,0.24-0.126,0.14,0.025.57-.069,0.52,0.085a0.508,0.508,0,0,1-.1.107,5.256,5.256,0,0,1,2.1,9.38,0.279,0.279,0,0,1,.09.012c0.06,0.031.08,0.253-.09,0.224-0.22-.04-0.26.16-0.18,0.358-0.26.055-.21-0.186-0.19-0.337A4.94,4.94,0,0,1,1440.99,377.743Zm2.92-1.72c-0.15.059-.24-0.192-0.19-0.317a1.122,1.122,0,0,0,.1-0.252c0.01-.435.22,0.058,0.13,0.077C1443.95,375.72,1444.16,375.924,1443.91,376.023Zm-0.71.774c-0.05.085-.06,0.353-0.26,0.27-0.17-.074-0.09-0.256.06-0.291C1443,376.674,1443.32,376.593,1443.2,376.8Zm-1,1.452a0.21,0.21,0,0,1-.3-0.075c-0.03-.047-0.07-0.23.12-0.155C1442.08,378.045,1442.36,378.132,1442.2,378.249Zm0.3,0.149a0.376,0.376,0,0,1-.25-0.03,0.608,0.608,0,0,0,.25-0.222V378.4Zm-0.1-.563c-0.13.24-.11-0.083,0.02-0.057a2.066,2.066,0,0,1-.21-0.121c-0.03-.081-0.06-0.268.09-0.19a0.384,0.384,0,0,1,.26.146C1442.59,377.7,1442.61,377.956,1442.4,377.835Zm0.28,0.709c-0.31-.106,0-0.415.16-0.247,0.1,0.1.48,0.01,0.41,0.267A0.784,0.784,0,0,1,1442.68,378.544Zm1.54-.8c-0.23-.232-0.28-0.469-0.15-0.463C1444.23,377.291,1444.33,377.859,1444.22,377.744Zm0.01-.925a0.555,0.555,0,0,1-.26-0.372c-0.13.055-.26,0.225-0.3,0.071a1.03,1.03,0,0,0,.32-0.317,0.633,0.633,0,0,1,.12.165,0.376,0.376,0,0,0,.3.083A0.22,0.22,0,0,1,1444.23,376.819Zm-0.27-7.028c-0.2-.747.48-0.048,0.52,0.063C1444.59,370.141,1444.03,370.023,1443.96,369.791Zm2.3,2.227c-0.07-.333.18,0.065,0.02,0.186a0.221,0.221,0,0,1-.18-0.036C1446.17,372.141,1446.28,372.115,1446.26,372.018Zm-0.06,1.994a0.416,0.416,0,0,0,.17.385,0.506,0.506,0,0,1-.27-0.066,0.226,0.226,0,0,1-.2-0.319h0.3Zm-0.55,1.535a0.1,0.1,0,0,1-.03-0.124c0.01-.064.1-0.228,0.18-0.133C1445.73,375.393,1445.85,375.627,1445.65,375.547Zm0-4.333,0.09,0.616a0.811,0.811,0,0,1-.32-0.484C1445.32,371.146,1445.55,371.186,1445.65,371.214Zm-0.46,1.768c-0.12-.085-0.21-0.213-0.34-0.3a0.535,0.535,0,0,0,.1-0.081,0.139,0.139,0,1,1,.24.139C1445.26,372.828,1445.29,373.048,1445.19,372.982Zm0-1.164c0-.066-0.08-0.287.07-0.222,0.09,0.038.36,0.119,0.05,0.222C1445.32,371.816,1445.21,371.818,1445.19,371.818Zm0.22,1.719c0.27-.125.14,0.228,0.19,0.311s0.1,0.276-.02.246a0.229,0.229,0,0,1-.17-0.139A2.913,2.913,0,0,1,1445.41,373.537Zm0.16,3.8c-0.02-.006-0.06-0.036-0.08-0.044-0.18-.073-0.01-0.216.12-0.095C1445.63,377.221,1445.83,377.423,1445.57,377.34Zm0.25-.7a0.181,0.181,0,0,1-.08-0.084,0.589,0.589,0,0,1-.02-0.283C1445.94,376.342,1445.99,376.661,1445.82,376.641Zm0.27-.622c-0.09.109-.15-0.042-0.11-0.155-0.18-.075,0-0.13.05-0.156C1446.15,375.639,1446.14,375.95,1446.09,376.019Zm0.28-.135c-0.02-.021-0.05-0.253.05-0.228C1446.59,375.7,1446.46,375.857,1446.37,375.884Zm0.17-3.288a0.691,0.691,0,0,1-.16-0.257C1446.62,371.978,1446.61,372.475,1446.54,372.6Zm-19.56,14.325c-0.01-.044-0.04-0.043-0.07-0.029a0.754,0.754,0,0,0,.1.066A0.4,0.4,0,0,1,1426.98,386.921Zm27.99-11.155c0.01-.741.01-1.661,0.01-2.934v-1.593c-0.12,0-.16.242-0.1,0.339-0.15.022-.29-0.087-0.25-0.186a0.769,0.769,0,0,0,.14-0.446,0.484,0.484,0,0,1-.53-0.16c-0.05-.093.25-0.01,0.26-0.25a4.084,4.084,0,0,0,.48.366v-0.229c-0.1-.014-0.11-0.177,0-0.231,0-.208,0-0.4-0.01-0.583h-0.3c0.08-.176-0.04-0.3-0.2-0.216a0.118,0.118,0,0,1,.07-0.164,0.4,0.4,0,0,1,.34.026c-0.03-.023-0.06-0.049-0.09-0.069-0.38-.222-0.02-0.283.18-0.256-0.01-1.251-.04-1.862-0.08-2.879a11.779,11.779,0,0,0-.74-3.846,7.736,7.736,0,0,0-1.52-2.457,0.429,0.429,0,0,1-.05.094,0.165,0.165,0,0,1-.07.008,0.589,0.589,0,0,1-.18-0.435,0.243,0.243,0,0,1-.02-0.014,7.858,7.858,0,0,0-2.81-1.829,11.683,11.683,0,0,0-3.86-.735c-1.13-.046-1.77-0.07-3.33-0.08,0.11,0.211-.22.28-0.32,0.19a0.273,0.273,0,0,1-.12-0.193c-0.72,0-1.61,0-2.79,0-3.89,0-4.72.016-6.09,0.074h0c0.05,0.077.04,0.257-.08,0.2a0.526,0.526,0,0,1-.08-0.1,0.3,0.3,0,0,1-.01-0.093l-0.29.013a11.738,11.738,0,0,0-3.86.735c-0.06.025-.12,0.057-0.18,0.083a0.321,0.321,0,0,0,.35.022l0.09,0.322a0.351,0.351,0,0,0-.36-0.068,0.668,0.668,0,0,1-.08.472,1.027,1.027,0,0,0,.37-0.111,0.405,0.405,0,0,1,.16.5c-0.17.256-.26,0.017-0.15-0.184a2.458,2.458,0,0,1-.48.094c0.05-.125.04-0.319-0.12-0.237-0.21-.138-0.31.25-0.43,0.106a0.654,0.654,0,0,1-.33-0.424,0.186,0.186,0,0,1,.01-0.02c-0.05.027-.1,0.053-0.15,0.082,0.14,0.2.41,0.378,0.22,0.6a0.658,0.658,0,0,0-.45.085c0.03-.177.05-0.407-0.16-0.4a0.438,0.438,0,0,0-.1.459,0.445,0.445,0,0,0,.4.143,5.3,5.3,0,0,1-.65.832,0.489,0.489,0,0,0,.14.644c-0.04.182-.21,0.031-0.23-0.039a0.22,0.22,0,0,0-.06-0.2c-0.01.152-.16,0.2-0.28,0.041a0.843,0.843,0,0,0,.26.618,0.428,0.428,0,0,1,.37-0.177,1.3,1.3,0,0,1-.36.468c0.23,0.141.43,0.261,0.23,0.457-0.18.176-.69,0.29-0.8,0.047a3.5,3.5,0,0,1-.14-0.806c-0.08,0-.1-0.084-0.08-0.172-0.07.154-.16,0.219-0.25,0.183a0.2,0.2,0,0,1,.03.075,0.434,0.434,0,0,0-.42.084v-0.345a0.163,0.163,0,0,1-.22-0.09c-0.12.194-.24,0.395-0.34,0.6a0.4,0.4,0,0,1,.45.069,0.262,0.262,0,0,1,.35.183c0.01,0.049-.09.044-0.18,0.037a0.226,0.226,0,0,1,.02.158l0.08-.006c0.03-.01.13-0.051,0.16-0.066,0.14-.061.15,0.058,0.11,0.127-0.13.215-.21-0.029-0.27-0.061a0.138,0.138,0,0,1-.17.12,0.344,0.344,0,0,1-.11.06,1.854,1.854,0,0,1,.2.467,0.226,0.226,0,0,1,.32.222c-0.04.165,0.1,0.358,0.08,0.6a0.717,0.717,0,0,1-.23-0.674c-0.16.158-.32-0.207-0.41,0.01a1.511,1.511,0,0,0,0,.369c-0.22.12-.16-0.164-0.12-0.242,0.11-.248-0.38-0.213-0.24-0.4a1.412,1.412,0,0,0,.2-0.341,0.313,0.313,0,0,1-.1-0.028,0.394,0.394,0,0,0-.16-0.576,1.008,1.008,0,0,0-.08.141,0.126,0.126,0,0,1,.1-0.047,0.44,0.44,0,0,1-.08.434,1.033,1.033,0,0,1-.26.191c-0.02-.005-0.03-0.011-0.05-0.016a0.588,0.588,0,0,1-.05.117,0.112,0.112,0,0,1,.05.008c-0.12.155-.08,0.376-0.17,0.5-0.01.017-.03,0-0.05,0-0.09.273-.18,0.564-0.25,0.872a1.4,1.4,0,0,0,.23-0.047c-0.07-.012-0.25-0.2-0.06-0.242,0.12-.03.06,0.158,0.06,0.242a0.364,0.364,0,0,1,.3.215c0.21,0.236.3-.172,0.35-0.279,0.19,0,.49-0.074.55,0.111a0.4,0.4,0,0,1,.06,0c0.24,0.057.31,0.648-.11,0.39a1.531,1.531,0,0,1-.17-0.134h-0.42v0.315a1.775,1.775,0,0,1-.73-0.489,0.2,0.2,0,0,1-.06-0.081c-0.03.133-.07,0.261-0.09,0.4l0.03-.032c0.23-.122.24,0.074,0.19,0.208,0.13-.009.29-0.034,0.28,0.1a0.484,0.484,0,0,0,.27.456c0.21,0.067.03,0.18-.07,0.12a0.428,0.428,0,0,1-.22.267,0.971,0.971,0,0,0-.21-0.871l-0.3.222a0.315,0.315,0,0,0-.04-0.073,0.908,0.908,0,0,1-.02.161,0.24,0.24,0,0,1,.2.042c-0.08.1-.3,0.147-0.22,0.271,0.04,0.07.16,0.118,0.11,0.218a1.575,1.575,0,0,1-.18.239c-0.02.177-.03,0.355-0.04,0.545a0.562,0.562,0,0,1-.02.134v0.1c-0.02.294-.03,0.551-0.04,0.8,0.08,0.012.06,0.174,0.02,0.237a0.05,0.05,0,0,1-.03-0.012c-0.01.3-.02,0.613-0.02,0.958,0.25-.125.15,0.2,0.14,0.31a0.184,0.184,0,0,1-.15-0.021c0,0.231-.01.487-0.01,0.774a0.192,0.192,0,0,1,.12.192c-0.04,0-.08,0-0.12,0v0.133a0.058,0.058,0,0,1,0,.057c-0.01.765-.01,1.727-0.01,3.095,0,4.3.02,4.84,0.1,6.53a11.276,11.276,0,0,0,.74,3.847,7.688,7.688,0,0,0,1.83,2.8c0.13,0.127.26,0.232,0.38,0.346,0.05-.085.2-0.193,0.18-0.035a1.084,1.084,0,0,1-.02.171c0.08,0.074.17,0.145,0.26,0.213,0.07-.074.16-0.142,0.21-0.193-0.07-.2.01-0.425,0.25-0.383a1.076,1.076,0,0,0-.11.35,1.1,1.1,0,0,1,.28.445,0.145,0.145,0,0,1-.16.121,8.366,8.366,0,0,0,1.54.794c0.25,0.094.5,0.181,0.77,0.26a0.6,0.6,0,0,1,.05-0.039l-0.01.051c0.06,0.018.13,0.03,0.19,0.046a0.6,0.6,0,0,0-.08-0.074c0.11-.11.23,0,0.29,0.127a13.211,13.211,0,0,0,2.65.364c1.7,0.076,2.24.094,6.56,0.094h1.6v-0.327c0.26-.136.34,0.1,0.26,0.272,0.02,0.019.01,0.036,0.03,0.054,0.63,0,1.18,0,1.61-.008a0.2,0.2,0,0,1,.3,0c1.09-.012,1.7-0.035,2.58-0.074-0.02-.068-0.05-0.14-0.07-0.2-0.2-.41.41-0.156,0.4-0.089a2.41,2.41,0,0,0,.01.267,13.26,13.26,0,0,0,2.37-.325,0.549,0.549,0,0,1,.19-0.442c0.14-.178.47,0.186,0.11,0.209-0.01.034-.01,0.1-0.03,0.167a10.7,10.7,0,0,0,1.05-.331,8.176,8.176,0,0,0,4.65-4.633,11.707,11.707,0,0,0,.74-3.847c0.05-1.149.07-1.79,0.08-3.421A0.129,0.129,0,0,1,1454.97,375.766Zm-0.2-7.775a0.417,0.417,0,0,0-.07.384,0.275,0.275,0,0,1-.2-0.243A0.2,0.2,0,0,1,1454.77,367.991Zm-0.47,3.084c0.17-.051.18,0.279-0.01,0.281C1454.2,371.356,1454.17,371.117,1454.3,371.075Zm-0.43,5.747c-0.32-.132-0.16-0.462.1-0.526,0-.184.58-0.33,0.36,0.039C1454.25,376.489,1454.23,376.973,1453.87,376.822Zm0.17,4.131c-0.04.034-.25,0.081-0.23,0a0.483,0.483,0,0,1,.07-0.121C1454,380.626,1454.13,380.872,1454.04,380.953Zm-0.45-8.25a0.188,0.188,0,0,1,0,.321,0.29,0.29,0,0,1-.13.049C1453.46,372.96,1453.32,372.551,1453.59,372.7Zm-0.39.879a0.2,0.2,0,0,1,.15-0.114C1453.59,373.559,1453.3,373.656,1453.2,373.582Zm0.42-1.893c-0.14-.028-0.1-0.234-0.1-0.343h-0.32a0.358,0.358,0,0,1-.08.329,0.227,0.227,0,0,1-.37-0.138l0.45-.191a1.8,1.8,0,0,0,.49-0.328A2.47,2.47,0,0,1,1453.62,371.689Zm-1.03-.263c0.01-.084-0.14-0.4.2-0.327,0.23,0.051.12,0.255-.03,0.305A0.8,0.8,0,0,1,1452.59,371.426Zm1.4,2.254a0.43,0.43,0,0,1-.05.095,0.227,0.227,0,0,1-.26.073C1453.72,373.761,1453.88,373.535,1453.99,373.68Zm0.38-10.49a0.388,0.388,0,0,1-.02.249,0.563,0.563,0,0,0-.11-0.1c-0.08-.02-0.3.046-0.25-0.071A1.2,1.2,0,0,1,1454.37,363.19Zm-0.32.471a0.241,0.241,0,0,1-.15.319c-0.12.032-.06-0.156-0.06-0.241-0.2-.02.01-0.234,0.06-0.106l-0.06.106C1453.95,363.921,1453.99,363.691,1454.05,363.661Zm-0.31-.493a0.29,0.29,0,0,1-.1-0.281c0.11-.244.16,0.091,0.17,0.164C1454.01,363.065,1453.82,363.265,1453.74,363.168Zm0.33,1.059c0.13,0.268-.23.11-0.33,0.129C1453.61,364.091,1453.97,364.25,1454.07,364.227Zm-0.39-1.726c0.09-.052.27-0.171,0.36,0.006,0.12,0.235-.3.118-0.45,0.114A0.123,0.123,0,0,1,1453.68,362.5Zm0.38,3.582a0.3,0.3,0,0,1-.48.274l-0.03-.02C1453.2,365.864,1453.92,366.1,1454.06,366.083Zm-0.66,3.087c0.15,0.146.06,0.291-.13,0.2a0.293,0.293,0,0,1-.12-0.163C1453.1,369.073,1453.33,369.1,1453.4,369.17Zm-1.11-6.209c0.22-.186.23-0.036,0.21,0.152,0.08-.037.2-0.128,0.19-0.006a0.2,0.2,0,0,1-.2.155,0.64,0.64,0,0,0-.02.222C1452.29,363.424,1452.1,363.119,1452.29,362.961Zm0.22,1.708c-0.01.333-.37,0.246-0.57,0.224v-0.13Zm-0.6-2.176c0.12-.211.26,0.035,0.16,0.116-0.04.036-.25,0.082-0.23,0A0.453,0.453,0,0,1,1451.91,362.493Zm-0.29-1.781a0.307,0.307,0,0,1,.17.289,1.466,1.466,0,0,1-.19,0C1451.46,360.967,1451.45,360.67,1451.62,360.712Zm-0.44-1.438c0.04,0.075.11,0.459-.07,0.39a1.219,1.219,0,0,1-.45-0.508C1450.52,358.844,1451.09,359.055,1451.18,359.274Zm-0.04,3.213c-0.1-.074-0.38-0.117-0.21-0.313-0.04-.082.01-0.222,0.14-0.127,0.02,0.012.02,0.166,0.05,0.224A0.283,0.283,0,0,1,1451.14,362.487Zm-5.06-4.861-0.11-.109C1446.02,357.394,1446.2,357.572,1446.08,357.626Zm-1.49.162a0.2,0.2,0,0,1-.24-0.085C1444.26,357.436,1444.58,357.644,1444.59,357.788Zm-0.11,2.068c-0.06-.02-0.05-0.071-0.05-0.146,0-.018.19-0.224,0.14-0.032C1444.55,359.767,1444.7,359.937,1444.48,359.856Zm-0.7-2.159a0.758,0.758,0,0,1,.4.155,0.1,0.1,0,0,1-.04.136,0.631,0.631,0,0,0-.37-0.039C1443.77,357.864,1443.71,357.672,1443.78,357.7Zm-0.48.335c0.06-.081.19-0.251,0.32-0.093a0.532,0.532,0,0,1,.24.123,0.758,0.758,0,0,1-.19.358,0.527,0.527,0,0,1-.67-0.483A0.586,0.586,0,0,1,1443.3,358.032Zm0.04,0.582c-0.2.315-.26,0.006-0.26-0.061C1443.1,358.387,1443.34,358.612,1443.34,358.614Zm-3.53-.62c0.06,0.058-.11.226-0.17,0.168C1439.51,358.023,1439.67,357.86,1439.81,357.994Zm-0.77.074a0.334,0.334,0,0,1-.19.084C1438.69,358.163,1438.91,357.948,1439.04,358.068Zm-0.77-.1a0.362,0.362,0,0,1,.26.477,0.5,0.5,0,0,1-.26.25v-0.727Zm-1.52,1.462c0.02-.074-0.04-0.261.08-0.231,0.19,0.046.01,0.229-.08,0.231-0.08.065-.36,0.439-0.41,0.088Zm-2.04-2.35c0.29-.129.13,0.228,0.14,0.318h-0.14v-0.318Zm0.23,2.438a0.263,0.263,0,0,1-.12.309A0.218,0.218,0,0,1,1434.94,359.514Zm-0.38-1.414h0.29c0.08,0.145-.05.184-0.16,0.139a0.377,0.377,0,0,1-.13.186V358.1Zm-0.15.923c0.32-.077.25,0.34,0.15,0.412C1434.22,359.691,1434.09,359.1,1434.41,359.023Zm-0.76.489a0.2,0.2,0,0,1,.2-0.08,0.922,0.922,0,0,1-.02.308C1433.74,359.693,1433.56,359.618,1433.65,359.512Zm-0.44-1.494c0.06-.1.22-0.317,0.33-0.171a0.421,0.421,0,0,1-.33.171,0.77,0.77,0,0,1,.05.489c-0.11-.06-0.32.359-0.42,0.078A0.984,0.984,0,0,0,1433.21,358.018Zm-0.81.3a0.911,0.911,0,0,0,.32.411,0.33,0.33,0,0,1-.22.245,0.425,0.425,0,0,0-.12-0.367A0.292,0.292,0,0,1,1432.4,358.315Zm-1.15,1.043c0.07,0.162-.09.32-0.18,0.183-0.12-.192-0.44-0.443-0.23-0.733-0.1-.125-0.26.108-0.28-0.108a0.644,0.644,0,0,1,.37-0.13,6.367,6.367,0,0,0,.19.673,0.188,0.188,0,0,0,.13.115l0.01-.457c0.14-.076.18,0.057,0.13,0.164C1431.32,359.179,1431.49,359.332,1431.25,359.358Zm0.24-.776a3.288,3.288,0,0,1,.46.63c0.02,0.1-.22.078-0.25-0.056-0.19.312-.11-0.09-0.15-0.21S1431.23,358.652,1431.49,358.582Zm0.01-1a0.284,0.284,0,0,0,.13.342c0.28,0.124-.11.085-0.16,0.075-0.12.186-.27-0.1-0.11-0.117a0.145,0.145,0,0,0-.06-0.177C1431.13,357.527,1431.4,357.539,1431.5,357.584Zm-0.42-.016c0.18,0.262-.14.32-0.25,0.358-0.13.046-.27,0-0.19-0.157a2.8,2.8,0,0,0-.01-0.324A0.333,0.333,0,0,1,1431.08,357.568Zm-0.52.8c0.15-.058.44-0.18,0.35,0.011a0.433,0.433,0,0,1-.45.1A0.263,0.263,0,0,1,1430.56,358.372Zm0.08,1.678a0.378,0.378,0,0,0-.1.051C1430.29,360.2,1430.44,359.864,1430.64,360.05Zm-0.29-1.276c-0.04.142-.19-0.131-0.16-0.251C1430.23,358.38,1430.38,358.653,1430.35,358.774Zm-0.47-.167c0.07,0.065.03,0.293-.14,0.192a0.438,0.438,0,0,1-.1-0.071C1429.42,358.472,1429.85,358.589,1429.88,358.607Zm-0.51-.314a1.2,1.2,0,0,0,0-.193c0.11,0.139.33,0.233,0.07,0.346V358.9c-0.28.108-.11-0.258-0.14-0.307C1429.2,358.443,1429.33,358.366,1429.37,358.293Zm-1.04,2.38a0.263,0.263,0,0,1-.14-0.12c-0.15-.324.26-0.115,0.26-0.034S1428.55,360.757,1428.33,360.673Zm-0.01-1.654c0.02,0.112.18,0.257,0.03,0.345a1.288,1.288,0,0,1-.19-0.257C1428.12,359.013,1428.27,358.767,1428.32,359.019Zm-0.15.781c0.03,0.055.21,0.323-.08,0.2a0.692,0.692,0,0,1-.05-0.083C1427.99,359.821,1428.07,359.655,1428.17,359.8Zm-2.04,3.863c0.17,0.041.04,0.2-.05,0.228C1426.06,363.871,1426.02,363.638,1426.13,363.663Zm-1.17,1.565c0.28-.129.12,0.229,0.14,0.318h-0.14v-0.318Zm0.69-.282a0.679,0.679,0,0,1-.14-0.637c0.06-.117.58-0.321,0.42-0.013a4.033,4.033,0,0,0-.28.65,1.141,1.141,0,0,0,.54.463,1.762,1.762,0,0,0-.44.777,0.305,0.305,0,0,0-.19-0.019c0,0.057-.06.088-0.15,0.046,0,0-.01,0-0.01,0a1.226,1.226,0,0,0-.21.125,0.117,0.117,0,0,1,.06.2c-0.04.035-.25,0.08-0.23,0a0.483,0.483,0,0,1,.07-0.121,0.133,0.133,0,0,1,.06-0.05c-0.09.058-.16,0.1-0.21,0.047C1425.14,365.8,1425.46,365.446,1425.65,364.946Zm-0.59,4.681a0.114,0.114,0,0,1,.02-0.08c0.13-.2.26,0.02,0.26,0.038C1425.36,370.027,1425.1,369.686,1425.06,369.627Zm0.28,4.19c-0.03.13-.36,0.17-0.21-0.06a0.442,0.442,0,0,1,.07-0.094C1425.32,373.539,1425.37,373.694,1425.34,373.817Zm-0.42-5.518-0.02-.565C1425.32,367.727,1425.08,368.143,1424.92,368.3Zm-0.14-3.445c0.22,0.072-.02.194-0.02,0.011A0.036,0.036,0,0,0,1424.78,364.854Zm-0.09.28c0.04,0.078.1,0.376-.12,0.234a1.11,1.11,0,0,1-.03-0.217C1424.46,364.891,1424.66,365.092,1424.69,365.134Zm-0.39.719c0.01-.1,0-0.319.2-0.212-0.12.242,0.15,0.243,0.3,0.188a0.631,0.631,0,0,1,.04.414,1.724,1.724,0,0,0-.55-0.239C1424.29,365.986,1424.3,365.891,1424.3,365.853Zm-0.52-.243v-0.147c0.13-.061.17-0.01,0.17,0.066a0.244,0.244,0,0,1,.27.362,0.782,0.782,0,0,1-.22.229l0.42,0.056a0.619,0.619,0,0,1-.2.214,0.292,0.292,0,0,1-.41-0.187,0.159,0.159,0,0,1-.12-0.056A0.373,0.373,0,0,1,1423.78,365.61Zm-0.32.89c0-.217.23,0.127,0.29,0.154a0.439,0.439,0,0,1,.28.651c-0.18.211-.15-0.155-0.18-0.265A2.1,2.1,0,0,1,1423.46,366.5Zm0.55,2.322c-0.02.023-.26,0.054-0.23-0.049C1423.82,368.6,1423.98,368.735,1424.01,368.822Zm-0.12.64c0.03-.121.19-0.2,0.12,0.02a0.24,0.24,0,0,1-.31.127A0.269,0.269,0,0,1,1423.89,369.462Zm0.25,4.888c-0.07.062-.46,0.147-0.41,0a1.069,1.069,0,0,1,.11-0.217C1424.07,373.758,1424.3,374.2,1424.14,374.35Zm0.17-4.078c-0.19.177-.4,0.093-0.2,0.018a0.276,0.276,0,0,1,.07-0.277,0.336,0.336,0,0,1,.31-0.156A0.44,0.44,0,0,0,1424.31,370.272Zm0.16,10.8v-0.706a0.685,0.685,0,0,1,.34.433C1424.9,381,1424.61,381.115,1424.47,381.067Zm0.34,2.856c-0.24-.139.09-0.117,0.15-0.082C1424.95,383.867,1424.89,383.97,1424.81,383.923Zm0.3-8.739a0.212,0.212,0,0,1,.16.239h-0.22C1425.05,375.343,1424.99,375.156,1425.11,375.184Zm0.14,6.571c-0.14-.138.03-0.3,0.17-0.167C1425.48,381.645,1425.31,381.814,1425.25,381.755Zm0.13-2.487c-0.05.05-.21,0.257-0.25,0.076a0.549,0.549,0,0,1,.13-0.227C1425.35,379.057,1425.51,379.134,1425.38,379.268Zm-0.02-7.843c0.01-.079-0.05-0.266.06-0.239a0.211,0.211,0,0,1,.17.239h-0.23Zm-0.05-1.39a1.017,1.017,0,0,1,.72-0.068C1425.9,370.275,1425.37,370.367,1425.31,370.035Zm0.79,13.111a0.115,0.115,0,1,1,.16-0.164A0.115,0.115,0,1,1,1426.1,383.146Zm2.19,4.161a0.089,0.089,0,0,1-.04-0.148,0.787,0.787,0,0,1,.32.028C1428.69,387.408,1428.41,387.333,1428.29,387.307Zm0.16-1.845-0.12.141c-0.16-.053-0.16-0.2-0.01-0.263C1428.33,384.944,1428.84,385.457,1428.45,385.462Zm1.17,2.195a1.134,1.134,0,0,1-.82.128c-0.02-.084.19-0.217,0.03-0.293,0-.292.41,0.389,0.75,0.028C1429.7,387.4,1429.69,387.61,1429.62,387.657Zm-0.56-.583c0.24-.287.13,0.242,0.12,0.324A0.208,0.208,0,0,1,1429.06,387.074Zm0.23-.676a0.149,0.149,0,0,1-.03.224c0.09,0.1-.04.259-0.12,0.137a0.239,0.239,0,0,1,.15-0.361,0.26,0.26,0,0,1,.37-0.255c-0.03-.01.22,0.017,0.06,0.152A1.144,1.144,0,0,0,1429.29,386.4Zm0.6,1.158c-0.14-.138.03-0.3,0.17-0.167C1430.12,387.446,1429.95,387.615,1429.89,387.556Zm0.52-.541a0.172,0.172,0,0,1-.23.162,0.472,0.472,0,0,1-.42-0.494c0.16,0.037.32,0.251,0.48,0.076a0.353,0.353,0,0,1,.19-0.107C1430.62,386.647,1430.42,386.9,1430.41,387.015Zm-0.03-1.034a0.591,0.591,0,0,1,.11-0.116c0.12,0.073.23,0.255,0.37,0.338a0.508,0.508,0,0,1-.17.361,0.817,0.817,0,0,1-.12-0.156,0.229,0.229,0,0,1-.11.047c0-.07-0.02-0.2-0.02-0.293A1.238,1.238,0,0,1,1430.38,385.981Zm0.71,2.087a0.131,0.131,0,0,1-.17-0.195c0.07-.114-0.31-0.017-0.3-0.167,0.16-.054.16-0.213-0.03-0.278,0.1-.2.34,0.033,0.41,0.153C1431.08,387.726,1431.28,387.943,1431.09,388.068Zm1.08-.426a1,1,0,0,1-.15-0.256c0-.083.26-0.062,0.33,0.055a1.145,1.145,0,0,1,.43.237A4.577,4.577,0,0,1,1432.17,387.642Zm0.74-.464c-0.06.06-.16-0.219-0.32-0.089a0.293,0.293,0,0,0-.06-0.252c-0.01.224-.09,0.122-0.13,0.089a0.449,0.449,0,0,0-.46-0.1c-0.26.12-.61,0.434-0.86,0.183-0.23-.231.13-0.223,0.27-0.219a0.969,0.969,0,0,0,.75-0.3,2.709,2.709,0,0,1,.44-0.225,0.368,0.368,0,0,1-.19-0.255c0.21,0.07.56-.026,0.62,0.245,0.03,0.095-.25.057-0.38,0.058a1.625,1.625,0,0,0,0,.382C1432.65,386.909,1433.3,386.782,1432.91,387.178Zm1.12-.789a1.158,1.158,0,0,0,.29.12,0.229,0.229,0,0,1-.31.192A0.769,0.769,0,0,1,1434.03,386.389Zm0.35,0.624c-0.09.075-.18-0.141-0.21-0.218a0.578,0.578,0,0,1,.4-0.108A0.839,0.839,0,0,1,1434.38,387.013Zm0.77,0.087a0.2,0.2,0,0,1-.2.079,0.909,0.909,0,0,1,.02-0.306C1435.06,386.921,1435.24,387,1435.15,387.1Zm5.5,0.2a0.463,0.463,0,0,1-.36-0.493,0.369,0.369,0,0,1,.55-0.3Zm0.77-.67c-0.08-.09-0.04-0.446.31-0.287C1442.29,386.61,1441.67,386.906,1441.42,386.634Zm1.62,1.673c-0.09-.238.23-0.229,0.32-0.181C1443.29,388.11,1443.22,388.741,1443.04,388.307Zm2.85-.08a1.012,1.012,0,0,1-.07-0.911,9.523,9.523,0,0,1-.94.312c-0.14-.295-0.03-0.514.31-0.484,0.18,0.017.58-.159,0.63,0.172l0.28,0.145A2.925,2.925,0,0,0,1445.89,388.227Zm1.95-1.993a0.291,0.291,0,0,1,.21-0.317c0.21-.1.4-0.263,0.63-0.344a0.629,0.629,0,0,0,.13.588C1448.47,386.234,1447.9,386.458,1447.84,386.234Zm1.33-.8c-0.15.3-.18,0.032-0.14-0.073a0.282,0.282,0,0,1,.43-0.122C1449.65,385.421,1449.38,385.527,1449.17,385.435Zm3.36-6.474a0.375,0.375,0,0,1-.5-0.09c0,0.119-.01.234-0.01,0.366a8.636,8.636,0,0,1-.55,2.941,4.858,4.858,0,0,1-1.19,1.823,4.781,4.781,0,0,1-1.83,1.182,7.649,7.649,0,0,1-1.43.381,0.388,0.388,0,0,1-.06.167c0.28,0.6-.34.69,0.26,1.206a1.91,1.91,0,0,1-1.01-.57c0.18-.339-0.17-0.364-0.52-0.229,0.23-.4-0.02-0.633-0.12-0.149a0.37,0.37,0,0,1-.12-0.257c-0.81.036-1.35,0.059-2.19,0.073a0.013,0.013,0,0,0-.01.014,2.859,2.859,0,0,1-1.26.383,1.39,1.39,0,0,0-.16-0.383c-0.71,0-1.58,0-2.75,0-4.24,0-4.74-.019-6.42-0.094-0.04,0-.07-0.007-0.1-0.009a0.146,0.146,0,0,1-.05.024,1.521,1.521,0,0,0-.57.187,1.138,1.138,0,0,0-.62-0.235,0.088,0.088,0,0,1-.03-0.105c-0.12-.019-0.24-0.037-0.35-0.058v0.479a0.261,0.261,0,0,1-.19-0.342,1.317,1.317,0,0,1,.03-0.166,6.458,6.458,0,0,1-.87-0.252,0.145,0.145,0,0,1-.15,0,0.287,0.287,0,0,1-.13-0.112,5.6,5.6,0,0,1-.82-0.41,0.121,0.121,0,0,1-.01.058c-0.03.129-.36,0.169-0.21-0.061a0.516,0.516,0,0,1,.07-0.091,5.211,5.211,0,0,1-.78-0.639,4.858,4.858,0,0,1-1.19-1.823,8.9,8.9,0,0,1-.55-2.941c-0.07-1.672-.09-2.168-0.09-6.4s0.02-4.726.09-6.4a11.382,11.382,0,0,1,.18-1.592c-0.08.043-.14,0.038-0.09-0.158a0.539,0.539,0,0,1,.16-0.2,6.494,6.494,0,0,1,.3-1,1.243,1.243,0,0,0,.08-0.152,0.044,0.044,0,0,1,.03-0.064,4.892,4.892,0,0,1,2.37-2.523,0.712,0.712,0,0,1-.19.007,0.221,0.221,0,0,1-.19-0.254,0.277,0.277,0,0,1,.19-0.228c-0.03-.046-0.01-0.1.1-0.1-0.11-.215.08-0.228,0.2-0.194a0.572,0.572,0,0,0-.15.281,2.988,2.988,0,0,0,.48.138,0.252,0.252,0,0,1-.07.165c0.06-.025.1-0.059,0.17-0.083a7,7,0,0,1,1.04-.311,0.46,0.46,0,0,1-.05-0.013,0.311,0.311,0,0,0,.16-0.278c-0.19.094-.28-0.108-0.27-0.258,0-.124.2,0.045,0.26,0.109a0.583,0.583,0,0,1,.09.4c0.17-.033.35-0.064,0.55-0.092a3.434,3.434,0,0,1-.06-0.419,0.18,0.18,0,0,1,.13-0.256c0.26-.082-0.09.2-0.01,0.334a0.9,0.9,0,0,1,.1.318c0.06-.008.14-0.01,0.2-0.016a0.816,0.816,0,0,1-.05-0.169,0.132,0.132,0,0,1,.19-0.144,2.063,2.063,0,0,1,.18.287c0.11-.009.21-0.02,0.32-0.026a0.826,0.826,0,0,0-.06-0.15,0.247,0.247,0,0,1-.07-0.217,0.614,0.614,0,0,1,.38.349c0.38-.019.72-0.034,1.05-0.045a0.034,0.034,0,0,1,.05-0.013,0.011,0.011,0,0,0,.01.011c0.44-.016.9-0.026,1.51-0.032a0.339,0.339,0,0,1,.01-0.2l0.29,0.077c0.03-.047.09-0.247,0.15-0.071l-0.15.071c-0.03.031-.1,0.1-0.12,0.12,0.62-.006,1.39-0.008,2.46-0.009a0.281,0.281,0,0,1,.14-0.174c0.11-.072.37-0.264,0.37,0a0.231,0.231,0,0,1-.08.174h0.65c4.24,0,4.74.019,6.42,0.1a8.68,8.68,0,0,1,2.95.547,1.876,1.876,0,0,1,.22.11,0.341,0.341,0,0,0,.07-0.108c0.01-.063.08-0.339,0.2-0.137-0.21.192,0.24,0.169,0.11,0.393a0.548,0.548,0,0,0-.07,0,5.018,5.018,0,0,1,1.3.919,4.858,4.858,0,0,1,1.19,1.823,8.9,8.9,0,0,1,.55,2.942c0.05,1.139.07,1.759,0.08,3.362a0.3,0.3,0,0,1,.04-0.1c0.31-.223.7,0.313,0.78,0.48a0.308,0.308,0,0,0,.01-0.248,1.023,1.023,0,0,1-.04-0.39h0.45c0.11,0.2-.12.16-0.22,0.133-0.02.206,0.17,0.152,0.27,0.11s0.13,0.129.2,0.2a0.459,0.459,0,0,0-.52.152c-0.11.067,0.04,0.137,0.12,0.1a0.769,0.769,0,0,0,1.1.012v0.26a0.762,0.762,0,0,0-.36.213c-0.06.123,0.22,0.147,0.31,0.272a0.886,0.886,0,0,0-.43.053,0.277,0.277,0,0,0-.11-0.331c-0.01.195-.21,0.159-0.36,0.135a0.5,0.5,0,0,0,.07-0.34c-0.16-.155-0.28.124-0.37,0.17a0.239,0.239,0,0,1-.32-0.105c0.2-.016.09-0.09,0.04-0.153a0.492,0.492,0,0,1-.11-0.321c-0.27.113-.23-0.3-0.47-0.271v0.335h0.3c0,0.079.06,0.275-.03,0.241a1.79,1.79,0,0,0-.34-0.081v0.693a0.148,0.148,0,0,1,.05.062c0.01,0.084.05,0.252-.05,0.25v3.633c0.11,0.006.28,0.024,0.4,0.028,0.1-.272.27-0.72,0.68-0.559,0.1,0.04.76,0.29,0.19,0.287-0.35,0-.52.681-0.87,0.272a0.99,0.99,0,0,0,.25.8c0.25,0.4-.05.215-0.31,0.212a0.411,0.411,0,0,1-.35-0.245c0,0.429,0,.8-0.01,1.119a0.4,0.4,0,0,1,.08-0.058,0.826,0.826,0,0,1,.61-0.036c0.11,0.058.14,0.459-.16,0.4-0.4-.071-0.48.291-0.33,0.649a0.3,0.3,0,0,1-.22-0.03v0.144s0.01,0,.01,0-0.01.008-.01,0.012c-0.01.182-.02,0.363-0.02,0.547a0.243,0.243,0,0,1,.14.021C1452.31,378.592,1452.81,378.75,1452.53,378.961Zm0.54,0.269a0.665,0.665,0,0,1-.45-0.053,1.237,1.237,0,0,0,.45-0.4v0.455Zm-0.19-1.017c-0.23.433-.19-0.151,0.04-0.105-0.19-.11-0.38-0.2-0.38-0.218-0.05-.147-0.11-0.484.17-0.344a0.7,0.7,0,0,1,.46.265,0.011,0.011,0,0,0,.01.011v0.013C1453.24,378.01,1453.26,378.423,1452.88,378.213Zm0.53,4.958c-0.06,0-.25.06-0.22-0.026a1.89,1.89,0,0,0,.09-0.374C1453.55,382.7,1453.4,383.056,1453.41,383.171Zm0.16-1.085h-0.14v-0.319C1453.72,381.638,1453.56,382,1453.57,382.086Zm0.1,1.481a0.174,0.174,0,0,1,.04-0.152c0.07-.087.19,0,0.26,0.045A0.261,0.261,0,0,1,1453.67,383.567Zm0.26-1.481c-0.05-.123-0.02-0.339.18-0.208a0.908,0.908,0,0,1,.12.208h-0.3Zm0.52-5.263c-0.02,0-.11-0.061-0.15-0.075-0.18-.076-0.02-0.2.09-0.149C1454.47,376.641,1454.63,376.8,1454.45,376.823Zm-0.03-.592a0.449,0.449,0,0,1-.03-0.589c0.25-.241.09,0.29,0.15,0.379C1454.65,376.179,1454.55,376.409,1454.42,376.231Zm-28.83-15.352a0.236,0.236,0,0,0,.14-0.027c0.02-.011.03-0.007,0.04-0.014-0.04-.024-0.09-0.046-0.13-0.071C1425.58,360.735,1425.58,360.805,1425.59,360.879Zm0.12,0.122a0.085,0.085,0,0,0,.02,0v-0.052A0.1,0.1,0,0,0,1425.71,361Zm0.32,0c0.01,0.041.02,0.083,0.03,0.122a0.455,0.455,0,0,0,.19.276,0.259,0.259,0,0,0-.06-0.28A0.692,0.692,0,0,0,1426.03,361Z" transform="translate(-1423.19 -357)"/>
</svg>
