<svg xmlns="http://www.w3.org/2000/svg" xmlns:xlink="http://www.w3.org/1999/xlink" preserveAspectRatio="xMidYMid" width="514" height="86" viewBox="0 0 514 86">
  <path d="M468.512,86.037 C444.480,85.923 423.295,68.474 423.414,42.810 C423.536,17.151 444.884,-0.101 468.916,0.008 C492.952,0.121 514.128,17.571 514.010,43.231 C513.888,68.890 492.548,86.146 468.512,86.037 ZM468.818,20.949 C456.486,20.892 445.528,29.748 445.467,42.915 C445.406,56.082 456.278,65.040 468.610,65.096 C480.942,65.153 491.895,56.297 491.961,43.130 C492.022,29.962 481.150,21.005 468.818,20.949 ZM310.588,2.342 C310.588,2.342 387.608,2.342 387.608,2.342 C387.608,2.342 387.608,21.565 387.608,21.565 C387.608,21.565 310.588,21.565 310.588,21.565 C310.588,21.565 310.588,2.342 310.588,2.342 ZM370.152,51.589 C370.152,51.589 331.817,51.589 331.817,51.589 C331.817,51.589 331.817,64.388 331.817,64.388 C331.817,64.388 387.608,64.388 387.608,64.388 C387.608,64.388 387.608,83.834 387.608,83.834 C387.608,83.834 310.588,83.834 310.588,83.834 C310.588,83.834 310.588,32.802 310.588,32.802 C310.588,32.802 370.152,32.802 370.152,32.802 C370.152,32.802 370.152,51.589 370.152,51.589 ZM244.596,83.614 C244.596,83.614 188.560,83.614 188.560,83.614 C188.560,83.614 188.560,2.284 188.560,2.284 C188.560,2.284 240.406,2.284 240.406,2.284 C254.847,2.284 265.389,11.108 265.389,24.788 C265.389,29.931 263.512,34.933 259.759,37.584 C266.690,41.696 270.733,47.729 270.733,58.023 C270.733,72.289 259.180,83.614 244.596,83.614 ZM239.553,21.641 C239.553,21.641 209.508,21.641 209.508,21.641 C209.508,21.641 209.508,32.634 209.508,32.634 C209.508,32.634 240.284,32.634 240.284,32.634 C242.474,32.634 244.661,29.814 244.661,27.140 C244.661,25.059 243.347,21.641 239.553,21.641 ZM243.466,51.344 C243.466,51.344 209.480,51.344 209.480,51.344 C209.480,51.344 209.480,64.116 209.480,64.116 C209.480,64.116 244.049,64.120 244.049,64.120 C247.406,64.120 250.030,61.736 250.030,57.878 C250.030,54.165 247.260,51.344 243.466,51.344 ZM118.034,2.285 C118.034,2.285 140.194,2.285 140.194,2.285 C140.194,2.285 140.194,83.615 140.194,83.615 C140.194,83.615 118.034,83.615 118.034,83.615 C118.034,83.615 118.034,2.285 118.034,2.285 ZM-0.001,2.281 C-0.001,2.281 21.233,2.281 21.233,2.281 C21.233,2.281 21.233,64.165 21.233,64.165 C21.233,64.165 75.538,64.165 75.538,64.165 C75.538,64.165 75.538,83.611 75.538,83.611 C75.538,83.611 -0.001,83.611 -0.001,83.611 C-0.001,83.611 -0.001,2.281 -0.001,2.281 Z" id="path-1" class="cls-2" fill-rule="evenodd"/>
</svg>
